{
 "cells": [
  {
   "cell_type": "code",
   "execution_count": 1,
   "metadata": {},
   "outputs": [],
   "source": [
    "# Write down all paths.\n",
    "\n",
    "\n",
    "PATH1 = r\"C:\\Users\\enesy\\Videos\\xd\\1.mp4\"\n",
    "PATH2 = r\"C:\\Users\\enesy\\Videos\\xd\\2.MOV\"\n",
    "PATH3 = r\"C:\\Users\\enesy\\Videos\\xd\\3.mp4\"\n",
    "PATH4 = r\"C:\\Users\\enesy\\Videos\\xd\\4.MP4\""
   ]
  },
  {
   "cell_type": "code",
   "execution_count": 2,
   "metadata": {},
   "outputs": [
    {
     "name": "stdout",
     "output_type": "stream",
     "text": [
      "pygame 2.6.1 (SDL 2.28.4, Python 3.11.2)\n",
      "Hello from the pygame community. https://www.pygame.org/contribute.html\n",
      "{'video_found': True, 'audio_found': True, 'metadata': {'major_brand': 'avc1', 'minor_version': '0', 'compatible_brands': 'avc1isom', 'creation_time': '2024-11-16T09:45:49.000000Z'}, 'inputs': [{'streams': [{'input_number': 0, 'stream_number': 0, 'stream_type': 'video', 'language': 'eng', 'default': True, 'size': [1920, 1080], 'bitrate': 23988, 'fps': 25.0, 'codec_name': 'h264', 'profile': '(Main)', 'metadata': {'rotate': 180.0, 'creation_time': '2024-11-16T09:45:49.000000Z', 'handler_name': 'Ambarella AVC', 'encoder': 'Ambarella AVC encoder', 'Side data': '', 'displaymatrix': 'rotation of -180.00 degrees'}}, {'input_number': 0, 'stream_number': 1, 'stream_type': 'audio', 'language': 'eng', 'default': True, 'fps': 48000, 'bitrate': 192, 'metadata': {'rotate': '180', 'creation_time': '2024-11-16T09:45:49.000000Z', 'handler_name': 'Ambarella AAC'}}], 'input_number': 0}], 'duration': 415.72, 'bitrate': 24234, 'start': 0.0, 'default_video_input_number': 0, 'default_video_stream_number': 0, 'video_codec_name': 'h264', 'video_profile': '(Main)', 'video_size': [1920, 1080], 'video_bitrate': 23988, 'video_fps': 25.0, 'video_rotation': 180.0, 'default_audio_input_number': 0, 'default_audio_stream_number': 1, 'audio_fps': 48000, 'audio_bitrate': 192, 'video_duration': 415.72, 'video_n_frames': 10393}\n",
      "c:\\Users\\enesy\\AppData\\Local\\Programs\\Python\\Python311\\Lib\\site-packages\\imageio_ffmpeg\\binaries\\ffmpeg-win64-v4.2.2.exe -i C:\\Users\\enesy\\Videos\\xd\\1.mp4 -loglevel error -f image2pipe -vf scale=1920:1080 -sws_flags bicubic -pix_fmt rgb24 -vcodec rawvideo -\n",
      "{'video_found': True, 'audio_found': True, 'metadata': {'major_brand': 'qt', 'minor_version': '0', 'compatible_brands': 'qt', 'creation_time': '2024-11-16T09:45:49.000000Z', 'com.apple.quicktime.location.accuracy.horizontal': '3.966881', 'com.apple.quicktime.full-frame-rate-playback-intent': '0', 'com.apple.quicktime.location.ISO6709': '+53.1684+008.6545+025.861/', 'com.apple.quicktime.make': 'Apple', 'com.apple.quicktime.model': 'iPhone 15 Pro', 'com.apple.quicktime.software': '18.0.1', 'com.apple.quicktime.creationdate': '2024-11-16T10:45:49+0100'}, 'inputs': [{'streams': [{'input_number': 0, 'stream_number': 0, 'stream_type': 'video', 'language': None, 'default': True, 'size': [1920, 1080], 'bitrate': 13098, 'fps': 59.96, 'codec_name': 'hevc', 'profile': '(Main 10)', 'metadata': {'creation_time': '2024-11-16T09:45:49.000000Z', 'handler_name': 'Core Media Video', 'encoder': 'HEVC'}}, {'input_number': 0, 'stream_number': 1, 'stream_type': 'audio', 'language': None, 'default': True, 'fps': 44100, 'bitrate': 179, 'metadata': {'creation_time': '2024-11-16T09:45:49.000000Z', 'handler_name': 'Core Media Audio'}}, {'input_number': 0, 'stream_number': 2, 'stream_type': 'data', 'language': None, 'default': True, 'metadata': {'creation_time': '2024-11-16T09:45:49.000000Z', 'handler_name': 'Core Media Metadata'}}, {'input_number': 0, 'stream_number': 3, 'stream_type': 'data', 'language': None, 'default': True, 'metadata': {'creation_time': '2024-11-16T09:45:49.000000Z', 'handler_name': 'Core Media Metadata'}}, {'input_number': 0, 'stream_number': 4, 'stream_type': 'data', 'language': None, 'default': True, 'metadata': {'creation_time': '2024-11-16T09:45:49.000000Z', 'handler_name': 'Core Media Metadata'}}, {'input_number': 0, 'stream_number': 5, 'stream_type': 'data', 'language': None, 'default': True, 'metadata': {'creation_time': '2024-11-16T09:45:49.000000Z', 'handler_name': 'Core Media Metadata'}}, {'input_number': 0, 'stream_number': 6, 'stream_type': 'data', 'language': None, 'default': True, 'metadata': {'creation_time': '2024-11-16T09:45:49.000000Z', 'handler_name': 'Core Media Metadata'}}], 'input_number': 0}], 'duration': 389.5, 'bitrate': 13460, 'start': 0.0, 'default_video_input_number': 0, 'default_video_stream_number': 0, 'video_codec_name': 'hevc', 'video_profile': '(Main 10)', 'video_size': [1920, 1080], 'video_bitrate': 13098, 'video_fps': 59.96, 'default_audio_input_number': 0, 'default_audio_stream_number': 1, 'audio_fps': 44100, 'audio_bitrate': 179, 'default_data_input_number': 0, 'default_data_stream_number': 6, 'video_duration': 389.5, 'video_n_frames': 23354}\n",
      "c:\\Users\\enesy\\AppData\\Local\\Programs\\Python\\Python311\\Lib\\site-packages\\imageio_ffmpeg\\binaries\\ffmpeg-win64-v4.2.2.exe -i C:\\Users\\enesy\\Videos\\xd\\2.MOV -loglevel error -f image2pipe -vf scale=1920:1080 -sws_flags bicubic -pix_fmt rgb24 -vcodec rawvideo -\n",
      "{'video_found': True, 'audio_found': True, 'metadata': {'major_brand': 'avc1', 'minor_version': '0', 'compatible_brands': 'avc1isom', 'creation_time': '2024-11-16T09:45:51.000000Z'}, 'inputs': [{'streams': [{'input_number': 0, 'stream_number': 0, 'stream_type': 'video', 'language': 'eng', 'default': True, 'size': [1920, 1080], 'bitrate': 25680, 'fps': 29.97002997002997, 'codec_name': 'h264', 'profile': '(Main)', 'metadata': {'creation_time': '2024-11-16T09:45:51.000000Z', 'handler_name': 'Ambarella AVC', 'encoder': 'Ambarella AVC encoder'}}, {'input_number': 0, 'stream_number': 1, 'stream_type': 'audio', 'language': 'eng', 'default': True, 'fps': 48000, 'bitrate': 192, 'metadata': {'creation_time': '2024-11-16T09:45:51.000000Z', 'handler_name': 'Ambarella AAC'}}], 'input_number': 0}], 'duration': 415.62, 'bitrate': 26261, 'start': 0.0, 'default_video_input_number': 0, 'default_video_stream_number': 0, 'video_codec_name': 'h264', 'video_profile': '(Main)', 'video_size': [1920, 1080], 'video_bitrate': 25680, 'video_fps': 29.97002997002997, 'default_audio_input_number': 0, 'default_audio_stream_number': 1, 'audio_fps': 48000, 'audio_bitrate': 192, 'video_duration': 415.62, 'video_n_frames': 12456}\n",
      "c:\\Users\\enesy\\AppData\\Local\\Programs\\Python\\Python311\\Lib\\site-packages\\imageio_ffmpeg\\binaries\\ffmpeg-win64-v4.2.2.exe -i C:\\Users\\enesy\\Videos\\xd\\3.mp4 -loglevel error -f image2pipe -vf scale=1920:1080 -sws_flags bicubic -pix_fmt rgb24 -vcodec rawvideo -\n",
      "{'video_found': True, 'audio_found': True, 'metadata': {'major_brand': 'mp42', 'minor_version': '1', 'compatible_brands': 'mp42avc1', 'creation_time': '2024-11-16T11:41:12.000000Z'}, 'inputs': [{'streams': [{'input_number': 0, 'stream_number': 0, 'stream_type': 'video', 'language': None, 'default': True, 'size': [1920, 1080], 'bitrate': 27013, 'fps': 59.94, 'codec_name': 'h264', 'profile': '(High)', 'metadata': {'creation_time': '2024-11-16T11:41:12.000000Z'}}, {'input_number': 0, 'stream_number': 1, 'stream_type': 'audio', 'language': None, 'default': True, 'fps': 48000, 'bitrate': 125, 'metadata': {'creation_time': '2024-11-16T11:41:12.000000Z'}}], 'input_number': 0}], 'duration': 398.9, 'bitrate': 27149, 'start': 0.0, 'default_video_input_number': 0, 'default_video_stream_number': 0, 'video_codec_name': 'h264', 'video_profile': '(High)', 'video_size': [1920, 1080], 'video_bitrate': 27013, 'video_fps': 59.94, 'default_audio_input_number': 0, 'default_audio_stream_number': 1, 'audio_fps': 48000, 'audio_bitrate': 125, 'video_duration': 398.9, 'video_n_frames': 23910}\n",
      "c:\\Users\\enesy\\AppData\\Local\\Programs\\Python\\Python311\\Lib\\site-packages\\imageio_ffmpeg\\binaries\\ffmpeg-win64-v4.2.2.exe -i C:\\Users\\enesy\\Videos\\xd\\4.MP4 -loglevel error -f image2pipe -vf scale=1920:1080 -sws_flags bicubic -pix_fmt rgb24 -vcodec rawvideo -\n",
      "{'video_found': True, 'audio_found': True, 'metadata': {'major_brand': 'avc1', 'minor_version': '0', 'compatible_brands': 'avc1isom', 'creation_time': '2024-11-16T09:45:49.000000Z'}, 'inputs': [{'streams': [{'input_number': 0, 'stream_number': 0, 'stream_type': 'video', 'language': 'eng', 'default': True, 'size': [1920, 1080], 'bitrate': 23988, 'fps': 25.0, 'codec_name': 'h264', 'profile': '(Main)', 'metadata': {'rotate': 180.0, 'creation_time': '2024-11-16T09:45:49.000000Z', 'handler_name': 'Ambarella AVC', 'encoder': 'Ambarella AVC encoder', 'Side data': '', 'displaymatrix': 'rotation of -180.00 degrees'}}, {'input_number': 0, 'stream_number': 1, 'stream_type': 'audio', 'language': 'eng', 'default': True, 'fps': 48000, 'bitrate': 192, 'metadata': {'rotate': '180', 'creation_time': '2024-11-16T09:45:49.000000Z', 'handler_name': 'Ambarella AAC'}}], 'input_number': 0}], 'duration': 415.72, 'bitrate': 24234, 'start': 0.0, 'default_video_input_number': 0, 'default_video_stream_number': 0, 'video_codec_name': 'h264', 'video_profile': '(Main)', 'video_size': [1920, 1080], 'video_bitrate': 23988, 'video_fps': 25.0, 'video_rotation': 180.0, 'default_audio_input_number': 0, 'default_audio_stream_number': 1, 'audio_fps': 48000, 'audio_bitrate': 192, 'video_duration': 415.72, 'video_n_frames': 10393}\n",
      "c:\\Users\\enesy\\AppData\\Local\\Programs\\Python\\Python311\\Lib\\site-packages\\imageio_ffmpeg\\binaries\\ffmpeg-win64-v4.2.2.exe -i C:\\Users\\enesy\\Videos\\xd\\1.mp4 -loglevel error -f image2pipe -vf scale=1920:1080 -sws_flags bicubic -pix_fmt rgb24 -vcodec rawvideo -\n",
      "Audio processing complete for 1.\n",
      "{'video_found': True, 'audio_found': True, 'metadata': {'major_brand': 'qt', 'minor_version': '0', 'compatible_brands': 'qt', 'creation_time': '2024-11-16T09:45:49.000000Z', 'com.apple.quicktime.location.accuracy.horizontal': '3.966881', 'com.apple.quicktime.full-frame-rate-playback-intent': '0', 'com.apple.quicktime.location.ISO6709': '+53.1684+008.6545+025.861/', 'com.apple.quicktime.make': 'Apple', 'com.apple.quicktime.model': 'iPhone 15 Pro', 'com.apple.quicktime.software': '18.0.1', 'com.apple.quicktime.creationdate': '2024-11-16T10:45:49+0100'}, 'inputs': [{'streams': [{'input_number': 0, 'stream_number': 0, 'stream_type': 'video', 'language': None, 'default': True, 'size': [1920, 1080], 'bitrate': 13098, 'fps': 59.96, 'codec_name': 'hevc', 'profile': '(Main 10)', 'metadata': {'creation_time': '2024-11-16T09:45:49.000000Z', 'handler_name': 'Core Media Video', 'encoder': 'HEVC'}}, {'input_number': 0, 'stream_number': 1, 'stream_type': 'audio', 'language': None, 'default': True, 'fps': 44100, 'bitrate': 179, 'metadata': {'creation_time': '2024-11-16T09:45:49.000000Z', 'handler_name': 'Core Media Audio'}}, {'input_number': 0, 'stream_number': 2, 'stream_type': 'data', 'language': None, 'default': True, 'metadata': {'creation_time': '2024-11-16T09:45:49.000000Z', 'handler_name': 'Core Media Metadata'}}, {'input_number': 0, 'stream_number': 3, 'stream_type': 'data', 'language': None, 'default': True, 'metadata': {'creation_time': '2024-11-16T09:45:49.000000Z', 'handler_name': 'Core Media Metadata'}}, {'input_number': 0, 'stream_number': 4, 'stream_type': 'data', 'language': None, 'default': True, 'metadata': {'creation_time': '2024-11-16T09:45:49.000000Z', 'handler_name': 'Core Media Metadata'}}, {'input_number': 0, 'stream_number': 5, 'stream_type': 'data', 'language': None, 'default': True, 'metadata': {'creation_time': '2024-11-16T09:45:49.000000Z', 'handler_name': 'Core Media Metadata'}}, {'input_number': 0, 'stream_number': 6, 'stream_type': 'data', 'language': None, 'default': True, 'metadata': {'creation_time': '2024-11-16T09:45:49.000000Z', 'handler_name': 'Core Media Metadata'}}], 'input_number': 0}], 'duration': 389.5, 'bitrate': 13460, 'start': 0.0, 'default_video_input_number': 0, 'default_video_stream_number': 0, 'video_codec_name': 'hevc', 'video_profile': '(Main 10)', 'video_size': [1920, 1080], 'video_bitrate': 13098, 'video_fps': 59.96, 'default_audio_input_number': 0, 'default_audio_stream_number': 1, 'audio_fps': 44100, 'audio_bitrate': 179, 'default_data_input_number': 0, 'default_data_stream_number': 6, 'video_duration': 389.5, 'video_n_frames': 23354}\n",
      "c:\\Users\\enesy\\AppData\\Local\\Programs\\Python\\Python311\\Lib\\site-packages\\imageio_ffmpeg\\binaries\\ffmpeg-win64-v4.2.2.exe -i C:\\Users\\enesy\\Videos\\xd\\2.MOV -loglevel error -f image2pipe -vf scale=1920:1080 -sws_flags bicubic -pix_fmt rgb24 -vcodec rawvideo -\n",
      "Audio processing complete for 2.\n",
      "{'video_found': True, 'audio_found': True, 'metadata': {'major_brand': 'avc1', 'minor_version': '0', 'compatible_brands': 'avc1isom', 'creation_time': '2024-11-16T09:45:51.000000Z'}, 'inputs': [{'streams': [{'input_number': 0, 'stream_number': 0, 'stream_type': 'video', 'language': 'eng', 'default': True, 'size': [1920, 1080], 'bitrate': 25680, 'fps': 29.97002997002997, 'codec_name': 'h264', 'profile': '(Main)', 'metadata': {'creation_time': '2024-11-16T09:45:51.000000Z', 'handler_name': 'Ambarella AVC', 'encoder': 'Ambarella AVC encoder'}}, {'input_number': 0, 'stream_number': 1, 'stream_type': 'audio', 'language': 'eng', 'default': True, 'fps': 48000, 'bitrate': 192, 'metadata': {'creation_time': '2024-11-16T09:45:51.000000Z', 'handler_name': 'Ambarella AAC'}}], 'input_number': 0}], 'duration': 415.62, 'bitrate': 26261, 'start': 0.0, 'default_video_input_number': 0, 'default_video_stream_number': 0, 'video_codec_name': 'h264', 'video_profile': '(Main)', 'video_size': [1920, 1080], 'video_bitrate': 25680, 'video_fps': 29.97002997002997, 'default_audio_input_number': 0, 'default_audio_stream_number': 1, 'audio_fps': 48000, 'audio_bitrate': 192, 'video_duration': 415.62, 'video_n_frames': 12456}\n",
      "c:\\Users\\enesy\\AppData\\Local\\Programs\\Python\\Python311\\Lib\\site-packages\\imageio_ffmpeg\\binaries\\ffmpeg-win64-v4.2.2.exe -i C:\\Users\\enesy\\Videos\\xd\\3.mp4 -loglevel error -f image2pipe -vf scale=1920:1080 -sws_flags bicubic -pix_fmt rgb24 -vcodec rawvideo -\n",
      "Audio processing complete for 3.\n",
      "{'video_found': True, 'audio_found': True, 'metadata': {'major_brand': 'mp42', 'minor_version': '1', 'compatible_brands': 'mp42avc1', 'creation_time': '2024-11-16T11:41:12.000000Z'}, 'inputs': [{'streams': [{'input_number': 0, 'stream_number': 0, 'stream_type': 'video', 'language': None, 'default': True, 'size': [1920, 1080], 'bitrate': 27013, 'fps': 59.94, 'codec_name': 'h264', 'profile': '(High)', 'metadata': {'creation_time': '2024-11-16T11:41:12.000000Z'}}, {'input_number': 0, 'stream_number': 1, 'stream_type': 'audio', 'language': None, 'default': True, 'fps': 48000, 'bitrate': 125, 'metadata': {'creation_time': '2024-11-16T11:41:12.000000Z'}}], 'input_number': 0}], 'duration': 398.9, 'bitrate': 27149, 'start': 0.0, 'default_video_input_number': 0, 'default_video_stream_number': 0, 'video_codec_name': 'h264', 'video_profile': '(High)', 'video_size': [1920, 1080], 'video_bitrate': 27013, 'video_fps': 59.94, 'default_audio_input_number': 0, 'default_audio_stream_number': 1, 'audio_fps': 48000, 'audio_bitrate': 125, 'video_duration': 398.9, 'video_n_frames': 23910}\n",
      "c:\\Users\\enesy\\AppData\\Local\\Programs\\Python\\Python311\\Lib\\site-packages\\imageio_ffmpeg\\binaries\\ffmpeg-win64-v4.2.2.exe -i C:\\Users\\enesy\\Videos\\xd\\4.MP4 -loglevel error -f image2pipe -vf scale=1920:1080 -sws_flags bicubic -pix_fmt rgb24 -vcodec rawvideo -\n",
      "Audio processing complete for 4.\n"
     ]
    },
    {
     "data": {
      "text/plain": [
       "[0.0, 18.829319727891157, 0.3985487528344671, 12.75968253968254]"
      ]
     },
     "execution_count": 2,
     "metadata": {},
     "output_type": "execute_result"
    }
   ],
   "source": [
    "# Find all delays\n",
    "# Credit: Bucky und Stef\n",
    "\n",
    "from prototype import *\n",
    "\n",
    "all_paths = [PATH1, PATH2, PATH3, PATH4]\n",
    "\n",
    "delays = find_all_delays(all_paths)\n",
    "\n",
    "delays"
   ]
  },
  {
   "cell_type": "code",
   "execution_count": 3,
   "metadata": {},
   "outputs": [
    {
     "name": "stdout",
     "output_type": "stream",
     "text": [
      "{'video_found': True, 'audio_found': True, 'metadata': {'major_brand': 'avc1', 'minor_version': '0', 'compatible_brands': 'avc1isom', 'creation_time': '2024-11-16T09:45:49.000000Z'}, 'inputs': [{'streams': [{'input_number': 0, 'stream_number': 0, 'stream_type': 'video', 'language': 'eng', 'default': True, 'size': [1920, 1080], 'bitrate': 23988, 'fps': 25.0, 'codec_name': 'h264', 'profile': '(Main)', 'metadata': {'rotate': 180.0, 'creation_time': '2024-11-16T09:45:49.000000Z', 'handler_name': 'Ambarella AVC', 'encoder': 'Ambarella AVC encoder', 'Side data': '', 'displaymatrix': 'rotation of -180.00 degrees'}}, {'input_number': 0, 'stream_number': 1, 'stream_type': 'audio', 'language': 'eng', 'default': True, 'fps': 48000, 'bitrate': 192, 'metadata': {'rotate': '180', 'creation_time': '2024-11-16T09:45:49.000000Z', 'handler_name': 'Ambarella AAC'}}], 'input_number': 0}], 'duration': 415.72, 'bitrate': 24234, 'start': 0.0, 'default_video_input_number': 0, 'default_video_stream_number': 0, 'video_codec_name': 'h264', 'video_profile': '(Main)', 'video_size': [1920, 1080], 'video_bitrate': 23988, 'video_fps': 25.0, 'video_rotation': 180.0, 'default_audio_input_number': 0, 'default_audio_stream_number': 1, 'audio_fps': 48000, 'audio_bitrate': 192, 'video_duration': 415.72, 'video_n_frames': 10393}\n",
      "c:\\Users\\enesy\\AppData\\Local\\Programs\\Python\\Python311\\Lib\\site-packages\\imageio_ffmpeg\\binaries\\ffmpeg-win64-v4.2.2.exe -i C:\\Users\\enesy\\Videos\\xd\\1.mp4 -loglevel error -f image2pipe -vf scale=1920:1080 -sws_flags bicubic -pix_fmt rgb24 -vcodec rawvideo -\n",
      "{'video_found': True, 'audio_found': True, 'metadata': {'major_brand': 'qt', 'minor_version': '0', 'compatible_brands': 'qt', 'creation_time': '2024-11-16T09:45:49.000000Z', 'com.apple.quicktime.location.accuracy.horizontal': '3.966881', 'com.apple.quicktime.full-frame-rate-playback-intent': '0', 'com.apple.quicktime.location.ISO6709': '+53.1684+008.6545+025.861/', 'com.apple.quicktime.make': 'Apple', 'com.apple.quicktime.model': 'iPhone 15 Pro', 'com.apple.quicktime.software': '18.0.1', 'com.apple.quicktime.creationdate': '2024-11-16T10:45:49+0100'}, 'inputs': [{'streams': [{'input_number': 0, 'stream_number': 0, 'stream_type': 'video', 'language': None, 'default': True, 'size': [1920, 1080], 'bitrate': 13098, 'fps': 59.96, 'codec_name': 'hevc', 'profile': '(Main 10)', 'metadata': {'creation_time': '2024-11-16T09:45:49.000000Z', 'handler_name': 'Core Media Video', 'encoder': 'HEVC'}}, {'input_number': 0, 'stream_number': 1, 'stream_type': 'audio', 'language': None, 'default': True, 'fps': 44100, 'bitrate': 179, 'metadata': {'creation_time': '2024-11-16T09:45:49.000000Z', 'handler_name': 'Core Media Audio'}}, {'input_number': 0, 'stream_number': 2, 'stream_type': 'data', 'language': None, 'default': True, 'metadata': {'creation_time': '2024-11-16T09:45:49.000000Z', 'handler_name': 'Core Media Metadata'}}, {'input_number': 0, 'stream_number': 3, 'stream_type': 'data', 'language': None, 'default': True, 'metadata': {'creation_time': '2024-11-16T09:45:49.000000Z', 'handler_name': 'Core Media Metadata'}}, {'input_number': 0, 'stream_number': 4, 'stream_type': 'data', 'language': None, 'default': True, 'metadata': {'creation_time': '2024-11-16T09:45:49.000000Z', 'handler_name': 'Core Media Metadata'}}, {'input_number': 0, 'stream_number': 5, 'stream_type': 'data', 'language': None, 'default': True, 'metadata': {'creation_time': '2024-11-16T09:45:49.000000Z', 'handler_name': 'Core Media Metadata'}}, {'input_number': 0, 'stream_number': 6, 'stream_type': 'data', 'language': None, 'default': True, 'metadata': {'creation_time': '2024-11-16T09:45:49.000000Z', 'handler_name': 'Core Media Metadata'}}], 'input_number': 0}], 'duration': 389.5, 'bitrate': 13460, 'start': 0.0, 'default_video_input_number': 0, 'default_video_stream_number': 0, 'video_codec_name': 'hevc', 'video_profile': '(Main 10)', 'video_size': [1920, 1080], 'video_bitrate': 13098, 'video_fps': 59.96, 'default_audio_input_number': 0, 'default_audio_stream_number': 1, 'audio_fps': 44100, 'audio_bitrate': 179, 'default_data_input_number': 0, 'default_data_stream_number': 6, 'video_duration': 389.5, 'video_n_frames': 23354}\n",
      "c:\\Users\\enesy\\AppData\\Local\\Programs\\Python\\Python311\\Lib\\site-packages\\imageio_ffmpeg\\binaries\\ffmpeg-win64-v4.2.2.exe -i C:\\Users\\enesy\\Videos\\xd\\2.MOV -loglevel error -f image2pipe -vf scale=1920:1080 -sws_flags bicubic -pix_fmt rgb24 -vcodec rawvideo -\n",
      "{'video_found': True, 'audio_found': True, 'metadata': {'major_brand': 'avc1', 'minor_version': '0', 'compatible_brands': 'avc1isom', 'creation_time': '2024-11-16T09:45:51.000000Z'}, 'inputs': [{'streams': [{'input_number': 0, 'stream_number': 0, 'stream_type': 'video', 'language': 'eng', 'default': True, 'size': [1920, 1080], 'bitrate': 25680, 'fps': 29.97002997002997, 'codec_name': 'h264', 'profile': '(Main)', 'metadata': {'creation_time': '2024-11-16T09:45:51.000000Z', 'handler_name': 'Ambarella AVC', 'encoder': 'Ambarella AVC encoder'}}, {'input_number': 0, 'stream_number': 1, 'stream_type': 'audio', 'language': 'eng', 'default': True, 'fps': 48000, 'bitrate': 192, 'metadata': {'creation_time': '2024-11-16T09:45:51.000000Z', 'handler_name': 'Ambarella AAC'}}], 'input_number': 0}], 'duration': 415.62, 'bitrate': 26261, 'start': 0.0, 'default_video_input_number': 0, 'default_video_stream_number': 0, 'video_codec_name': 'h264', 'video_profile': '(Main)', 'video_size': [1920, 1080], 'video_bitrate': 25680, 'video_fps': 29.97002997002997, 'default_audio_input_number': 0, 'default_audio_stream_number': 1, 'audio_fps': 48000, 'audio_bitrate': 192, 'video_duration': 415.62, 'video_n_frames': 12456}\n",
      "c:\\Users\\enesy\\AppData\\Local\\Programs\\Python\\Python311\\Lib\\site-packages\\imageio_ffmpeg\\binaries\\ffmpeg-win64-v4.2.2.exe -i C:\\Users\\enesy\\Videos\\xd\\3.mp4 -loglevel error -f image2pipe -vf scale=1920:1080 -sws_flags bicubic -pix_fmt rgb24 -vcodec rawvideo -\n",
      "{'video_found': True, 'audio_found': True, 'metadata': {'major_brand': 'mp42', 'minor_version': '1', 'compatible_brands': 'mp42avc1', 'creation_time': '2024-11-16T11:41:12.000000Z'}, 'inputs': [{'streams': [{'input_number': 0, 'stream_number': 0, 'stream_type': 'video', 'language': None, 'default': True, 'size': [1920, 1080], 'bitrate': 27013, 'fps': 59.94, 'codec_name': 'h264', 'profile': '(High)', 'metadata': {'creation_time': '2024-11-16T11:41:12.000000Z'}}, {'input_number': 0, 'stream_number': 1, 'stream_type': 'audio', 'language': None, 'default': True, 'fps': 48000, 'bitrate': 125, 'metadata': {'creation_time': '2024-11-16T11:41:12.000000Z'}}], 'input_number': 0}], 'duration': 398.9, 'bitrate': 27149, 'start': 0.0, 'default_video_input_number': 0, 'default_video_stream_number': 0, 'video_codec_name': 'h264', 'video_profile': '(High)', 'video_size': [1920, 1080], 'video_bitrate': 27013, 'video_fps': 59.94, 'default_audio_input_number': 0, 'default_audio_stream_number': 1, 'audio_fps': 48000, 'audio_bitrate': 125, 'video_duration': 398.9, 'video_n_frames': 23910}\n",
      "c:\\Users\\enesy\\AppData\\Local\\Programs\\Python\\Python311\\Lib\\site-packages\\imageio_ffmpeg\\binaries\\ffmpeg-win64-v4.2.2.exe -i C:\\Users\\enesy\\Videos\\xd\\4.MP4 -loglevel error -f image2pipe -vf scale=1920:1080 -sws_flags bicubic -pix_fmt rgb24 -vcodec rawvideo -\n"
     ]
    }
   ],
   "source": [
    "# We need to know the durations of videos\n",
    "# We will update these as we go.\n",
    "\n",
    "from moviepy import VideoFileClip\n",
    "\n",
    "durations = [VideoFileClip(path).duration for path in all_paths]"
   ]
  },
  {
   "cell_type": "code",
   "execution_count": 21,
   "metadata": {},
   "outputs": [
    {
     "name": "stdout",
     "output_type": "stream",
     "text": [
      "ffmpeg -i C:\\Users\\enesy\\Videos\\xd\\2.MOV -i C:\\Users\\enesy\\Videos\\xd\\1.mp4 -i C:\\Users\\enesy\\Videos\\xd\\3.mp4 -i C:\\Users\\enesy\\Videos\\xd\\4.MP4 -filter_complex [0:a]apad=pad_dur=18.83[s0];[1:v]tpad=start_duration=0.0[s1];[0:v]tpad=start_duration=18.83[s2];[2:v]tpad=start_duration=0.4[s3];[3:v]tpad=start_duration=12.76[s4];[s1][s2][s3][s4]xstack=inputs=4:layout=0_0|0_h0|w0_0|w0_h0[s5];[s5]trim=start=18.829319727891157[s6];[s6]setpts=PTS-STARTPTS[s7];[s7]scale=3840:2160[s8] -map [s0] -map [s8] -acodec aac -crf 21 -pix_fmt yuv420p -preset fast -profile high -progress pipe:1 -to 5 -vcodec libx264 split_xstack_test.mp4\n"
     ]
    }
   ],
   "source": [
    "# This is the edited commmand to include audio\n",
    "\n",
    "import ffmpeg\n",
    "\n",
    "OUTPUT_FILE_NAME_WITH_EXTENSION = \"split_xstack_test.mp4\"\n",
    "\n",
    "# Load videos into ffmpeg\n",
    "videos = [ffmpeg.input(path) for path in all_paths]\n",
    "\n",
    "video_streams = [video.video for video in videos]\n",
    "\n",
    "# Handling audio seperately\n",
    "audio_streams = [video.audio for video in videos]\n",
    "\n",
    "# We handle each video individually.\n",
    "for index, video in enumerate(video_streams):\n",
    "\n",
    "    # If the delay of the vide is negative:\n",
    "    if delays[index] < 0:\n",
    "        # We trim the video from the start\n",
    "        video_streams[index] = ffmpeg.trim(video, start=round(delays[index], 2)).setpts(\"PTS-STARTPTS\")\n",
    "        \n",
    "        # Update the corresponding video's duration\n",
    "        durations[index] -= round(delays[index])\n",
    "\n",
    "    else: # If the delay is positive\n",
    "        # We delay/push the videos start by the amount\n",
    "        video_streams[index] = ffmpeg.filter(video, \"tpad\", start_duration=round(delays[index], 2))\n",
    "\n",
    "        audio_streams[index] = ffmpeg.filter(audio_streams[index], \"apad\", pad_dur=round(delays[index], 2))\n",
    "        \n",
    "# Put the videos on grid 2x2\n",
    "xstacked = ffmpeg.filter(video_streams, \"xstack\", inputs=\"4\", layout=\"0_0|0_h0|w0_0|w0_h0\")\n",
    "\n",
    "# Trying to split xstack\n",
    "\n",
    "# We cut the whole video by the longest positive delay\n",
    "# So that the videos begin at the same time.\n",
    "video_start_adjusted = ffmpeg.trim(xstacked, start=max(delays)).setpts(\"PTS-STARTPTS\")\n",
    "\n",
    "# We take the audio stream with the maximum delay.\n",
    "maximum_delay = np.argmax(delays)\n",
    "audio_stream = audio_streams[maximum_delay]\n",
    "\n",
    "# Cut the start of audio similarly\n",
    "# This works because there will always be at least one 0 or larger delay.\n",
    "# Thus no need to account for negatives.\n",
    "audios_start_adjusted = ffmpeg.filter(audio_stream, \"atrim\", start=max(delays)).filter(\"asetpts\", \"PTS-STARTPTS\")\n",
    "\n",
    "# Scale down the video to 1080p 60FPS\n",
    "# Normally, we are supposed to output 4K 60FPS\n",
    "video_scaled = ffmpeg.filter(video_start_adjusted, \"scale\", 3840, 2160).filter('fps', fps=60, round='up')\n",
    "\n",
    "# The output uses ultrafast preset for demonstration purposes.\n",
    "# The video will continue until the shortest video ends, i.e set stop_duration = min(durations)\n",
    "# If you want to test it out for a shorter time, change the \"stop_duration\" to amount of seconds you want (e.g 10 secs)\n",
    "stop_duration = min(durations)\n",
    "out = ffmpeg.output(audio_stream, video_scaled, OUTPUT_FILE_NAME_WITH_EXTENSION, acodec=\"aac\", vcodec=\"libx264\", pix_fmt=\"yuv420p\", crf=21, preset=\"fast\", profile=\"high\", progress=\"pipe:1\", to=stop_duration)\n",
    "\n",
    "# Compile command will return the terminal command to run FFMPEG as a string\n",
    "command = out.compile()\n",
    "\n",
    "print(\" \".join(command))"
   ]
  },
  {
   "cell_type": "code",
   "execution_count": 22,
   "metadata": {},
   "outputs": [
    {
     "name": "stdout",
     "output_type": "stream",
     "text": [
      "FFMPEG is starting, please wait a couple minutes.\n",
      "ffmpeg version 2024-05-08-git-e8e84dc325-full_build-www.gyan.dev Copyright (c) 2000-2024 the FFmpeg developers\n",
      "\n",
      "  built with gcc 13.2.0 (Rev5, Built by MSYS2 project)\n",
      "\n",
      "  configuration: --enable-gpl --enable-version3 --enable-static --disable-w32threads --disable-autodetect --enable-fontconfig --enable-iconv --enable-gnutls --enable-libxml2 --enable-gmp --enable-bzlib --enable-lzma --enable-libsnappy --enable-zlib --enable-librist --enable-libsrt --enable-libssh --enable-libzmq --enable-avisynth --enable-libbluray --enable-libcaca --enable-sdl2 --enable-libaribb24 --enable-libaribcaption --enable-libdav1d --enable-libdavs2 --enable-libuavs3d --enable-libxevd --enable-libzvbi --enable-librav1e --enable-libsvtav1 --enable-libwebp --enable-libx264 --enable-libx265 --enable-libxavs2 --enable-libxeve --enable-libxvid --enable-libaom --enable-libjxl --enable-libopenjpeg --enable-libvpx --enable-mediafoundation --enable-libass --enable-frei0r --enable-libfreetype --enable-libfribidi --enable-libharfbuzz --enable-liblensfun --enable-libvidstab --enable-libvmaf --enable-libzimg --enable-amf --enable-cuda-llvm --enable-cuvid --enable-dxva2 --enable-d3d11va --enable-d3d12va --enable-ffnvcodec --enable-libvpl --enable-nvdec --enable-nvenc --enable-vaapi --enable-libshaderc --enable-vulkan --enable-libplacebo --enable-opencl --enable-libcdio --enable-libgme --enable-libmodplug --enable-libopenmpt --enable-libopencore-amrwb --enable-libmp3lame --enable-libshine --enable-libtheora --enable-libtwolame --enable-libvo-amrwbenc --enable-libcodec2 --enable-libilbc --enable-libgsm --enable-libopencore-amrnb --enable-libopus --enable-libspeex --enable-libvorbis --enable-ladspa --enable-libbs2b --enable-libflite --enable-libmysofa --enable-librubberband --enable-libsoxr --enable-chromaprint\n",
      "\n",
      "  libavutil      59. 17.100 / 59. 17.100\n",
      "\n",
      "  libavcodec     61.  5.103 / 61.  5.103\n",
      "\n",
      "  libavformat    61.  3.103 / 61.  3.103\n",
      "\n",
      "  libavdevice    61.  2.100 / 61.  2.100\n",
      "\n",
      "  libavfilter    10.  2.101 / 10.  2.101\n",
      "\n",
      "  libswscale      8.  2.100 /  8.  2.100\n",
      "\n",
      "  libswresample   5.  2.100 /  5.  2.100\n",
      "\n",
      "  libpostproc    58.  2.100 / 58.  2.100\n",
      "\n",
      "Input #0, mov,mp4,m4a,3gp,3g2,mj2, from 'C:\\Users\\enesy\\Videos\\xd\\2.MOV':\n",
      "\n",
      "  Metadata:\n",
      "\n",
      "    major_brand     : qt  \n",
      "\n",
      "    minor_version   : 0\n",
      "\n",
      "    compatible_brands: qt  \n",
      "\n",
      "    creation_time   : 2024-11-16T09:45:49.000000Z\n",
      "\n",
      "    com.apple.quicktime.location.accuracy.horizontal: 3.966881\n",
      "\n",
      "    com.apple.quicktime.full-frame-rate-playback-intent: 0\n",
      "\n",
      "    com.apple.quicktime.location.ISO6709: +53.1684+008.6545+025.861/\n",
      "\n",
      "    com.apple.quicktime.make: Apple\n",
      "\n",
      "    com.apple.quicktime.model: iPhone 15 Pro\n",
      "\n",
      "    com.apple.quicktime.software: 18.0.1\n",
      "\n",
      "    com.apple.quicktime.creationdate: 2024-11-16T10:45:49+0100\n",
      "\n",
      "  Duration: 00:06:29.50, start: 0.000000, bitrate: 13460 kb/s\n",
      "\n",
      "  Stream #0:0[0x1](und): Video: hevc (Main 10) (hvc1 / 0x31637668), yuv420p10le(tv, bt2020nc/bt2020/arib-std-b67), 1920x1080, 13098 kb/s, 59.96 fps, 59.94 tbr, 600 tbn (default)\n",
      "\n",
      "      Metadata:\n",
      "\n",
      "        creation_time   : 2024-11-16T09:45:49.000000Z\n",
      "\n",
      "        handler_name    : Core Media Video\n",
      "\n",
      "        vendor_id       : [0][0][0][0]\n",
      "\n",
      "        encoder         : HEVC\n",
      "\n",
      "      Side data:\n",
      "\n",
      "        DOVI configuration record: version: 1.0, profile: 8, level: 5, rpu flag: 1, el flag: 0, bl flag: 1, compatibility id: 4\n",
      "\n",
      "        Ambient Viewing Environment, ambient_illuminance=314.000000, ambient_light_x=0.312700, ambient_light_y=0.329000\n",
      "\n",
      "  Stream #0:1[0x2](und): Audio: aac (LC) (mp4a / 0x6134706D), 44100 Hz, stereo, fltp, 179 kb/s (default)\n",
      "\n",
      "      Metadata:\n",
      "\n",
      "        creation_time   : 2024-11-16T09:45:49.000000Z\n",
      "\n",
      "        handler_name    : Core Media Audio\n",
      "\n",
      "        vendor_id       : [0][0][0][0]\n",
      "\n",
      "  Stream #0:2[0x3](und): Data: none (mebx / 0x7862656D) (default)\n",
      "\n",
      "      Metadata:\n",
      "\n",
      "        creation_time   : 2024-11-16T09:45:49.000000Z\n",
      "\n",
      "        handler_name    : Core Media Metadata\n",
      "\n",
      "  Stream #0:3[0x4](und): Data: none (mebx / 0x7862656D), 28 kb/s (default)\n",
      "\n",
      "      Metadata:\n",
      "\n",
      "        creation_time   : 2024-11-16T09:45:49.000000Z\n",
      "\n",
      "        handler_name    : Core Media Metadata\n",
      "\n",
      "  Stream #0:4[0x5](und): Data: none (mebx / 0x7862656D), 119 kb/s (default)\n",
      "\n",
      "      Metadata:\n",
      "\n",
      "        creation_time   : 2024-11-16T09:45:49.000000Z\n",
      "\n",
      "        handler_name    : Core Media Metadata\n",
      "\n",
      "  Stream #0:5[0x6](und): Data: none (mebx / 0x7862656D), 5 kb/s (default)\n",
      "\n",
      "      Metadata:\n",
      "\n",
      "        creation_time   : 2024-11-16T09:45:49.000000Z\n",
      "\n",
      "        handler_name    : Core Media Metadata\n",
      "\n",
      "  Stream #0:6[0x7](und): Data: none (mebx / 0x7862656D) (default)\n",
      "\n",
      "      Metadata:\n",
      "\n",
      "        creation_time   : 2024-11-16T09:45:49.000000Z\n",
      "\n",
      "        handler_name    : Core Media Metadata\n",
      "\n",
      "Input #1, mov,mp4,m4a,3gp,3g2,mj2, from 'C:\\Users\\enesy\\Videos\\xd\\1.mp4':\n",
      "\n",
      "  Metadata:\n",
      "\n",
      "    major_brand     : avc1\n",
      "\n",
      "    minor_version   : 0\n",
      "\n",
      "    compatible_brands: avc1isom\n",
      "\n",
      "    creation_time   : 2024-11-16T09:45:49.000000Z\n",
      "\n",
      "  Duration: 00:06:55.72, start: 0.000000, bitrate: 24234 kb/s\n",
      "\n",
      "  Stream #1:0[0x1](eng): Video: h264 (Main) (avc1 / 0x31637661), yuvj420p(pc, bt709, progressive), 1920x1080 [SAR 1:1 DAR 16:9], 23988 kb/s, 25 fps, 25 tbr, 25k tbn (default)\n",
      "\n",
      "      Metadata:\n",
      "\n",
      "        creation_time   : 2024-11-16T09:45:49.000000Z\n",
      "\n",
      "        handler_name    :  Ambarella AVC\n",
      "\n",
      "        vendor_id       : [0][0][0][0]\n",
      "\n",
      "        encoder         : Ambarella AVC encoder\n",
      "\n",
      "      Side data:\n",
      "\n",
      "        displaymatrix: rotation of -180.00 degrees\n",
      "\n",
      "  Stream #1:1[0x2](eng): Audio: aac (LC) (mp4a / 0x6134706D), 48000 Hz, stereo, fltp, 192 kb/s (default)\n",
      "\n",
      "      Metadata:\n",
      "\n",
      "        creation_time   : 2024-11-16T09:45:49.000000Z\n",
      "\n",
      "        handler_name    :  Ambarella AAC\n",
      "\n",
      "        vendor_id       : [0][0][0][0]\n",
      "\n",
      "Input #2, mov,mp4,m4a,3gp,3g2,mj2, from 'C:\\Users\\enesy\\Videos\\xd\\3.mp4':\n",
      "\n",
      "  Metadata:\n",
      "\n",
      "    major_brand     : avc1\n",
      "\n",
      "    minor_version   : 0\n",
      "\n",
      "    compatible_brands: avc1isom\n",
      "\n",
      "    creation_time   : 2024-11-16T09:45:51.000000Z\n",
      "\n",
      "  Duration: 00:06:55.62, start: 0.000000, bitrate: 26261 kb/s\n",
      "\n",
      "  Stream #2:0[0x1](eng): Video: h264 (Main) (avc1 / 0x31637661), yuvj420p(pc, bt709, progressive), 1920x1080 [SAR 1:1 DAR 16:9], 25680 kb/s, 29.97 fps, 29.97 tbr, 30k tbn (default)\n",
      "\n",
      "      Metadata:\n",
      "\n",
      "        creation_time   : 2024-11-16T09:45:51.000000Z\n",
      "\n",
      "        handler_name    :  Ambarella AVC\n",
      "\n",
      "        vendor_id       : [0][0][0][0]\n",
      "\n",
      "        encoder         : Ambarella AVC encoder\n",
      "\n",
      "  Stream #2:1[0x2](eng): Audio: aac (LC) (mp4a / 0x6134706D), 48000 Hz, stereo, fltp, 192 kb/s (default)\n",
      "\n",
      "      Metadata:\n",
      "\n",
      "        creation_time   : 2024-11-16T09:45:51.000000Z\n",
      "\n",
      "        handler_name    :  Ambarella AAC\n",
      "\n",
      "        vendor_id       : [0][0][0][0]\n",
      "\n",
      "[mov,mp4,m4a,3gp,3g2,mj2 @ 000002db64a26d40] st: 0 edit list: 1 Missing key frame while searching for timestamp: 3003\n",
      "\n",
      "[mov,mp4,m4a,3gp,3g2,mj2 @ 000002db64a26d40] st: 0 edit list 1 Cannot find an index entry before timestamp: 3003.\n",
      "\n",
      "Input #3, mov,mp4,m4a,3gp,3g2,mj2, from 'C:\\Users\\enesy\\Videos\\xd\\4.MP4':\n",
      "\n",
      "  Metadata:\n",
      "\n",
      "    major_brand     : mp42\n",
      "\n",
      "    minor_version   : 1\n",
      "\n",
      "    compatible_brands: mp42avc1\n",
      "\n",
      "    creation_time   : 2024-11-16T11:41:12.000000Z\n",
      "\n",
      "  Duration: 00:06:38.90, start: 0.000000, bitrate: 27149 kb/s\n",
      "\n",
      "  Stream #3:0[0x1](und): Video: h264 (High) (avc1 / 0x31637661), yuv420p(tv, bt709, progressive), 1920x1080 [SAR 1:1 DAR 16:9], 27013 kb/s, 59.94 fps, 59.94 tbr, 180k tbn (default)\n",
      "\n",
      "      Metadata:\n",
      "\n",
      "        creation_time   : 2024-11-16T11:41:12.000000Z\n",
      "\n",
      "        vendor_id       : [0][0][0][0]\n",
      "\n",
      "  Stream #3:1[0x2](und): Audio: aac (LC) (mp4a / 0x6134706D), 48000 Hz, stereo, fltp, 125 kb/s (default)\n",
      "\n",
      "      Metadata:\n",
      "\n",
      "        creation_time   : 2024-11-16T11:41:12.000000Z\n",
      "\n",
      "        vendor_id       : [0][0][0][0]\n",
      "\n",
      "Please use -profile:a or -profile:v, -profile is ambiguous\n",
      "\n",
      "Stream mapping:\n",
      "\n",
      "  Stream #0:0 (hevc) -> tpad:default\n",
      "\n",
      "  Stream #0:1 (aac) -> apad:default\n",
      "\n",
      "  Stream #1:0 (h264) -> tpad:default\n",
      "\n",
      "  Stream #2:0 (h264) -> tpad:default\n",
      "\n",
      "  Stream #3:0 (h264) -> tpad:default\n",
      "\n",
      "  apad:default -> Stream #0:0 (aac)\n",
      "\n",
      "  scale:default -> Stream #0:1 (libx264)\n",
      "\n",
      "Press [q] to stop, [?] for help\n",
      "\n",
      "[swscaler @ 000002db0320ec80] deprecated pixel format used, make sure you did set range correctly\n",
      "\n",
      "[swscaler @ 000002db083e0a80] No accelerated colorspace conversion found from yuv420p to bgr48le.\n",
      "\n",
      "[swscaler @ 000002db08442d80] No accelerated colorspace conversion found from yuv420p to bgr48le.\n",
      "\n",
      "[swscaler @ 000002db08515040] No accelerated colorspace conversion found from yuv420p to bgr48le.\n",
      "\n",
      "[swscaler @ 000002db085cc040] No accelerated colorspace conversion found from yuv420p to bgr48le.\n",
      "\n",
      "[swscaler @ 000002db085f6000] No accelerated colorspace conversion found from yuv420p to bgr48le.\n",
      "\n",
      "[swscaler @ 000002db0869c040] No accelerated colorspace conversion found from yuv420p to bgr48le.\n",
      "\n",
      "[swscaler @ 000002db086ff140] No accelerated colorspace conversion found from yuv420p to bgr48le.\n",
      "\n",
      "[swscaler @ 000002db087a7000] No accelerated colorspace conversion found from yuv420p to bgr48le.\n",
      "\n",
      "[swscaler @ 000002db08865040] No accelerated colorspace conversion found from yuv420p to bgr48le.\n",
      "\n",
      "[swscaler @ 000002db1008d080] deprecated pixel format used, make sure you did set range correctly\n",
      "\n",
      "[swscaler @ 000002db103e5040] No accelerated colorspace conversion found from yuv420p to bgr48le.\n",
      "\n",
      "[swscaler @ 000002db1044e040] No accelerated colorspace conversion found from yuv420p to bgr48le.\n",
      "\n",
      "[swscaler @ 000002db104ac040] No accelerated colorspace conversion found from yuv420p to bgr48le.\n",
      "\n",
      "[swscaler @ 000002db10549040] No accelerated colorspace conversion found from yuv420p to bgr48le.\n",
      "\n",
      "[swscaler @ 000002db105f2040] No accelerated colorspace conversion found from yuv420p to bgr48le.\n",
      "\n",
      "[swscaler @ 000002db106b2040] No accelerated colorspace conversion found from yuv420p to bgr48le.\n",
      "\n",
      "[swscaler @ 000002db10710040] No accelerated colorspace conversion found from yuv420p to bgr48le.\n",
      "\n",
      "[swscaler @ 000002db1076e040] No accelerated colorspace conversion found from yuv420p to bgr48le.\n",
      "\n",
      "[swscaler @ 000002db1080d040] No accelerated colorspace conversion found from yuv420p to bgr48le.\n",
      "\n",
      "[swscaler @ 000002db109bb040] No accelerated colorspace conversion found from yuv420p to bgr48le.\n",
      "\n",
      "[swscaler @ 000002db10a16040] No accelerated colorspace conversion found from yuv420p to bgr48le.\n",
      "\n",
      "[swscaler @ 000002db10a71040] No accelerated colorspace conversion found from yuv420p to bgr48le.\n",
      "\n",
      "[swscaler @ 000002db10b0e040] No accelerated colorspace conversion found from yuv420p to bgr48le.\n",
      "\n",
      "[swscaler @ 000002db10b69040] No accelerated colorspace conversion found from yuv420p to bgr48le.\n",
      "\n",
      "[swscaler @ 000002db10c58040] No accelerated colorspace conversion found from yuv420p to bgr48le.\n",
      "\n",
      "[swscaler @ 000002db10c72000] No accelerated colorspace conversion found from yuv420p to bgr48le.\n",
      "\n",
      "[swscaler @ 000002db10d73040] No accelerated colorspace conversion found from yuv420p to bgr48le.\n",
      "\n",
      "[swscaler @ 000002db10e10040] No accelerated colorspace conversion found from yuv420p to bgr48le.\n",
      "\n",
      "[swscaler @ 000002db100800c0] deprecated pixel format used, make sure you did set range correctly\n",
      "\n",
      "[swscaler @ 000002db087a7000] No accelerated colorspace conversion found from yuv420p to bgr48le.\n",
      "\n",
      "[swscaler @ 000002db0837f040] No accelerated colorspace conversion found from yuv420p to bgr48le.\n",
      "\n",
      "[swscaler @ 000002db08520000] No accelerated colorspace conversion found from yuv420p to bgr48le.\n",
      "\n",
      "[swscaler @ 000002db088a4040] No accelerated colorspace conversion found from yuv420p to bgr48le.\n",
      "\n",
      "[swscaler @ 000002db0823f000] No accelerated colorspace conversion found from yuv420p to bgr48le.\n",
      "\n",
      "[swscaler @ 000002db085c5040] No accelerated colorspace conversion found from yuv420p to bgr48le.\n",
      "\n",
      "[swscaler @ 000002db082f7040] No accelerated colorspace conversion found from yuv420p to bgr48le.\n",
      "\n",
      "[swscaler @ 000002db06821d40] No accelerated colorspace conversion found from yuv420p to bgr48le.\n",
      "\n",
      "[swscaler @ 000002db0683bd00] No accelerated colorspace conversion found from yuv420p to bgr48le.\n",
      "\n",
      "[swscaler @ 000002db100800c0] deprecated pixel format used, make sure you did set range correctly\n",
      "\n",
      "[swscaler @ 000002db087a7000] No accelerated colorspace conversion found from yuv420p to bgr48le.\n",
      "\n",
      "[swscaler @ 000002db08520040] No accelerated colorspace conversion found from yuv420p to bgr48le.\n",
      "\n",
      "[swscaler @ 000002db08862040] No accelerated colorspace conversion found from yuv420p to bgr48le.\n",
      "\n",
      "[swscaler @ 000002db08373040] No accelerated colorspace conversion found from yuv420p to bgr48le.\n",
      "\n",
      "[swscaler @ 000002db0887c000] No accelerated colorspace conversion found from yuv420p to bgr48le.\n",
      "\n",
      "[swscaler @ 000002db08895fc0] No accelerated colorspace conversion found from yuv420p to bgr48le.\n",
      "\n",
      "[swscaler @ 000002db085c5040] No accelerated colorspace conversion found from yuv420p to bgr48le.\n",
      "\n",
      "[swscaler @ 000002db086de040] No accelerated colorspace conversion found from yuv420p to bgr48le.\n",
      "\n",
      "[swscaler @ 000002db086f8000] No accelerated colorspace conversion found from yuv420p to bgr48le.\n",
      "\n",
      "[swscaler @ 000002db100800c0] deprecated pixel format used, make sure you did set range correctly\n",
      "\n",
      "[swscaler @ 000002db087a7000] No accelerated colorspace conversion found from yuv420p to bgr48le.\n",
      "\n",
      "[swscaler @ 000002db08520040] No accelerated colorspace conversion found from yuv420p to bgr48le.\n",
      "\n",
      "[swscaler @ 000002db08862040] No accelerated colorspace conversion found from yuv420p to bgr48le.\n",
      "\n",
      "[swscaler @ 000002db08373040] No accelerated colorspace conversion found from yuv420p to bgr48le.\n",
      "\n",
      "[swscaler @ 000002db0887c000] No accelerated colorspace conversion found from yuv420p to bgr48le.\n",
      "\n",
      "[swscaler @ 000002db08895fc0] No accelerated colorspace conversion found from yuv420p to bgr48le.\n",
      "\n",
      "[swscaler @ 000002db085c5040] No accelerated colorspace conversion found from yuv420p to bgr48le.\n",
      "\n",
      "[swscaler @ 000002db082c6040] No accelerated colorspace conversion found from yuv420p to bgr48le.\n",
      "\n",
      "[swscaler @ 000002db082e0000] No accelerated colorspace conversion found from yuv420p to bgr48le.\n",
      "\n",
      "[swscaler @ 000002db1008d080] deprecated pixel format used, make sure you did set range correctly\n",
      "\n",
      "[swscaler @ 000002db7bab6f80] No accelerated colorspace conversion found from yuv420p to bgr48le.\n",
      "\n",
      "[swscaler @ 000002db1016f040] No accelerated colorspace conversion found from yuv420p to bgr48le.\n",
      "\n",
      "[swscaler @ 000002db103e5040] No accelerated colorspace conversion found from yuv420p to bgr48le.\n",
      "\n",
      "[swscaler @ 000002db10671040] No accelerated colorspace conversion found from yuv420p to bgr48le.\n",
      "\n",
      "[swscaler @ 000002db107f3040] No accelerated colorspace conversion found from yuv420p to bgr48le.\n",
      "\n",
      "[swscaler @ 000002db1080d000] No accelerated colorspace conversion found from yuv420p to bgr48le.\n",
      "\n",
      "[swscaler @ 000002db104df000] No accelerated colorspace conversion found from yuv420p to bgr48le.\n",
      "\n",
      "[swscaler @ 000002db104f8fc0] No accelerated colorspace conversion found from yuv420p to bgr48le.\n",
      "\n",
      "[swscaler @ 000002db1539c040] No accelerated colorspace conversion found from yuv420p to bgr48le.\n",
      "\n",
      "[swscaler @ 000002db1008d080] deprecated pixel format used, make sure you did set range correctly\n",
      "\n",
      "[swscaler @ 000002db10142040] No accelerated colorspace conversion found from yuv420p to bgr48le.\n",
      "\n",
      "[swscaler @ 000002db1054d040] No accelerated colorspace conversion found from yuv420p to bgr48le.\n",
      "\n",
      "[swscaler @ 000002db103f2000] No accelerated colorspace conversion found from yuv420p to bgr48le.\n",
      "\n",
      "[swscaler @ 000002db10169000] No accelerated colorspace conversion found from yuv420p to bgr48le.\n",
      "\n",
      "[swscaler @ 000002db1067e000] No accelerated colorspace conversion found from yuv420p to bgr48le.\n",
      "\n",
      "[swscaler @ 000002db1545d000] No accelerated colorspace conversion found from yuv420p to bgr48le.\n",
      "\n",
      "[swscaler @ 000002db107f3040] No accelerated colorspace conversion found from yuv420p to bgr48le.\n",
      "\n",
      "[swscaler @ 000002db1080d000] No accelerated colorspace conversion found from yuv420p to bgr48le.\n",
      "\n",
      "[swscaler @ 000002db152e3000] No accelerated colorspace conversion found from yuv420p to bgr48le.\n",
      "\n",
      "[swscaler @ 000002db1008d080] deprecated pixel format used, make sure you did set range correctly\n",
      "\n",
      "[swscaler @ 000002db10142040] No accelerated colorspace conversion found from yuv420p to bgr48le.\n",
      "\n",
      "[swscaler @ 000002db1054d040] No accelerated colorspace conversion found from yuv420p to bgr48le.\n",
      "\n",
      "[swscaler @ 000002db103f2000] No accelerated colorspace conversion found from yuv420p to bgr48le.\n",
      "\n",
      "[swscaler @ 000002db10169000] No accelerated colorspace conversion found from yuv420p to bgr48le.\n",
      "\n",
      "[swscaler @ 000002db1067e000] No accelerated colorspace conversion found from yuv420p to bgr48le.\n",
      "\n",
      "[swscaler @ 000002db10800000] No accelerated colorspace conversion found from yuv420p to bgr48le.\n",
      "\n",
      "[swscaler @ 000002db15492040] No accelerated colorspace conversion found from yuv420p to bgr48le.\n",
      "\n",
      "[swscaler @ 000002db154ac000] No accelerated colorspace conversion found from yuv420p to bgr48le.\n",
      "\n",
      "[swscaler @ 000002db153e2000] No accelerated colorspace conversion found from yuv420p to bgr48le.\n",
      "\n",
      "[fc#0 @ 000002db64528300] [vo1->#0:1 @ 000002db64524880] No information about the input framerate is available. Falling back to a default value of 25fps. Use the -r option if you want a different framerate.\n",
      "\n",
      "[libx264 @ 000002db655e4880] using SAR=1/1\n",
      "\n",
      "[libx264 @ 000002db655e4880] using cpu capabilities: MMX2 SSE2Fast SSSE3 SSE4.2 AVX FMA3 BMI2 AVX2\n",
      "\n",
      "[libx264 @ 000002db655e4880] profile High, level 5.1, 4:2:0, 8-bit\n",
      "\n",
      "[libx264 @ 000002db655e4880] 264 - core 164 r3190 7ed753b - H.264/MPEG-4 AVC codec - Copyleft 2003-2024 - http://www.videolan.org/x264.html - options: cabac=1 ref=2 deblock=1:0:0 analyse=0x3:0x113 me=hex subme=6 psy=1 psy_rd=1.00:0.00 mixed_ref=1 me_range=16 chroma_me=1 trellis=1 8x8dct=1 cqm=0 deadzone=21,11 fast_pskip=1 chroma_qp_offset=-2 threads=12 lookahead_threads=2 sliced_threads=0 nr=0 decimate=1 interlaced=0 bluray_compat=0 constrained_intra=0 bframes=3 b_pyramid=2 b_adapt=1 b_bias=0 direct=1 weightb=1 open_gop=0 weightp=1 keyint=250 keyint_min=25 scenecut=40 intra_refresh=0 rc_lookahead=30 rc=crf mbtree=1 crf=21.0 qcomp=0.60 qpmin=0 qpmax=69 qpstep=4 ip_ratio=1.40 aq=1:1.00\n",
      "\n",
      "Output #0, mp4, to 'split_xstack_test.mp4':\n",
      "\n",
      "  Metadata:\n",
      "\n",
      "    major_brand     : qt  \n",
      "\n",
      "    minor_version   : 0\n",
      "\n",
      "    compatible_brands: qt  \n",
      "\n",
      "    com.apple.quicktime.creationdate: 2024-11-16T10:45:49+0100\n",
      "\n",
      "    com.apple.quicktime.location.accuracy.horizontal: 3.966881\n",
      "\n",
      "    com.apple.quicktime.full-frame-rate-playback-intent: 0\n",
      "\n",
      "    com.apple.quicktime.location.ISO6709: +53.1684+008.6545+025.861/\n",
      "\n",
      "    com.apple.quicktime.make: Apple\n",
      "\n",
      "    com.apple.quicktime.model: iPhone 15 Pro\n",
      "\n",
      "    com.apple.quicktime.software: 18.0.1\n",
      "\n",
      "    encoder         : Lavf61.3.103\n",
      "\n",
      "  Stream #0:0: Audio: aac (LC) (mp4a / 0x6134706D), 44100 Hz, stereo, fltp, 128 kb/s\n",
      "\n",
      "      Metadata:\n",
      "\n",
      "        encoder         : Lavc61.5.103 aac\n",
      "\n",
      "  Stream #0:1: Video: h264 (avc1 / 0x31637661), yuv420p(tv, bt2020nc/unknown/unknown, progressive), 3840x2160 [SAR 1:1 DAR 16:9], q=2-31, 25 fps, 12800 tbn\n",
      "\n",
      "      Metadata:\n",
      "\n",
      "        encoder         : Lavc61.5.103 libx264\n",
      "\n",
      "      Side data:\n",
      "\n",
      "        cpb: bitrate max/min/avg: 0/0/0 buffer size: 0 vbv_delay: N/A\n",
      "\n",
      "frame=    0 fps=0.0 q=0.0 size=       0KiB time=N/A bitrate=N/A dup=0 drop=5 speed=N/A    \n",
      "\n",
      "frame=0\n",
      "\n",
      "fps=0.00\n",
      "\n",
      "stream_0_1_q=0.0\n",
      "\n",
      "bitrate=N/A\n",
      "\n",
      "total_size=48\n",
      "\n",
      "out_time_us=N/A\n",
      "\n",
      "out_time_ms=N/A\n",
      "\n",
      "out_time=N/A\n",
      "\n",
      "dup_frames=0\n",
      "\n",
      "drop_frames=5\n",
      "\n",
      "speed=N/A\n",
      "\n",
      "progress=continue\n",
      "\n",
      "frame=    0 fps=0.0 q=0.0 size=       0KiB time=N/A bitrate=N/A dup=0 drop=12 speed=N/A    \n",
      "\n",
      "frame=0\n",
      "\n",
      "fps=0.00\n",
      "\n",
      "stream_0_1_q=0.0\n",
      "\n",
      "bitrate=N/A\n",
      "\n",
      "total_size=48\n",
      "\n",
      "out_time_us=N/A\n",
      "\n",
      "out_time_ms=N/A\n",
      "\n",
      "out_time=N/A\n",
      "\n",
      "dup_frames=0\n",
      "\n",
      "drop_frames=12\n",
      "\n",
      "speed=N/A\n",
      "\n",
      "progress=continue\n",
      "\n",
      "frame=    0 fps=0.0 q=0.0 size=       0KiB time=N/A bitrate=N/A dup=0 drop=32 speed=N/A    \n",
      "\n",
      "frame=0\n",
      "\n",
      "fps=0.00\n",
      "\n",
      "stream_0_1_q=0.0\n",
      "\n",
      "bitrate=N/A\n",
      "\n",
      "total_size=48\n",
      "\n",
      "out_time_us=N/A\n",
      "\n",
      "out_time_ms=N/A\n",
      "\n",
      "out_time=N/A\n",
      "\n",
      "dup_frames=0\n",
      "\n",
      "drop_frames=32\n",
      "\n",
      "speed=N/A\n",
      "\n",
      "progress=continue\n",
      "\n",
      "frame=    0 fps=0.0 q=0.0 size=       0KiB time=N/A bitrate=N/A dup=0 drop=39 speed=N/A    \n",
      "\n",
      "frame=0\n",
      "\n",
      "fps=0.00\n",
      "\n",
      "stream_0_1_q=0.0\n",
      "\n",
      "bitrate=N/A\n",
      "\n",
      "total_size=48\n",
      "\n",
      "out_time_us=N/A\n",
      "\n",
      "out_time_ms=N/A\n",
      "\n",
      "out_time=N/A\n",
      "\n",
      "dup_frames=0\n",
      "\n",
      "drop_frames=39\n",
      "\n",
      "speed=N/A\n",
      "\n",
      "progress=continue\n",
      "\n",
      "frame=    0 fps=0.0 q=0.0 size=       0KiB time=N/A bitrate=N/A dup=0 drop=51 speed=N/A    \n",
      "\n",
      "frame=0\n",
      "\n",
      "fps=0.00\n",
      "\n",
      "stream_0_1_q=0.0\n",
      "\n",
      "bitrate=N/A\n",
      "\n",
      "total_size=48\n",
      "\n",
      "out_time_us=N/A\n",
      "\n",
      "out_time_ms=N/A\n",
      "\n",
      "out_time=N/A\n",
      "\n",
      "dup_frames=0\n",
      "\n",
      "drop_frames=51\n",
      "\n",
      "speed=N/A\n",
      "\n",
      "progress=continue\n",
      "\n",
      "frame=    0 fps=0.0 q=0.0 size=       0KiB time=N/A bitrate=N/A dup=0 drop=51 speed=N/A    \n",
      "\n",
      "frame=0\n",
      "\n",
      "fps=0.00\n",
      "\n",
      "stream_0_1_q=0.0\n",
      "\n",
      "bitrate=N/A\n",
      "\n",
      "total_size=48\n",
      "\n",
      "out_time_us=N/A\n",
      "\n",
      "out_time_ms=N/A\n",
      "\n",
      "out_time=N/A\n",
      "\n",
      "dup_frames=0\n",
      "\n",
      "drop_frames=51\n",
      "\n",
      "speed=N/A\n",
      "\n",
      "progress=continue\n",
      "\n",
      "frame=    0 fps=0.0 q=0.0 size=       0KiB time=N/A bitrate=N/A dup=0 drop=81 speed=N/A    \n",
      "\n",
      "frame=0\n",
      "\n",
      "fps=0.00\n",
      "\n",
      "stream_0_1_q=0.0\n",
      "\n",
      "bitrate=N/A\n",
      "\n",
      "total_size=48\n",
      "\n",
      "out_time_us=N/A\n",
      "\n",
      "out_time_ms=N/A\n",
      "\n",
      "out_time=N/A\n",
      "\n",
      "dup_frames=0\n",
      "\n",
      "drop_frames=81\n",
      "\n",
      "speed=N/A\n",
      "\n",
      "progress=continue\n",
      "\n",
      "frame=    0 fps=0.0 q=0.0 size=       0KiB time=N/A bitrate=N/A dup=0 drop=91 speed=N/A    \n",
      "\n",
      "frame=0\n",
      "\n",
      "fps=0.00\n",
      "\n",
      "stream_0_1_q=0.0\n",
      "\n",
      "bitrate=N/A\n",
      "\n",
      "total_size=48\n",
      "\n",
      "out_time_us=N/A\n",
      "\n",
      "out_time_ms=N/A\n",
      "\n",
      "out_time=N/A\n",
      "\n",
      "dup_frames=0\n",
      "\n",
      "drop_frames=91\n",
      "\n",
      "speed=N/A\n",
      "\n",
      "progress=continue\n",
      "\n",
      "frame=    0 fps=0.0 q=0.0 size=       0KiB time=N/A bitrate=N/A dup=0 drop=100 speed=N/A    \n",
      "\n",
      "frame=0\n",
      "\n",
      "fps=0.00\n",
      "\n",
      "stream_0_1_q=0.0\n",
      "\n",
      "bitrate=N/A\n",
      "\n",
      "total_size=48\n",
      "\n",
      "out_time_us=N/A\n",
      "\n",
      "out_time_ms=N/A\n",
      "\n",
      "out_time=N/A\n",
      "\n",
      "dup_frames=0\n",
      "\n",
      "drop_frames=100\n",
      "\n",
      "speed=N/A\n",
      "\n",
      "progress=continue\n",
      "\n",
      "frame=    0 fps=0.0 q=0.0 size=       0KiB time=N/A bitrate=N/A dup=0 drop=124 speed=N/A    \n",
      "\n",
      "frame=0\n",
      "\n",
      "fps=0.00\n",
      "\n",
      "stream_0_1_q=0.0\n",
      "\n",
      "bitrate=N/A\n",
      "\n",
      "total_size=48\n",
      "\n",
      "out_time_us=N/A\n",
      "\n",
      "out_time_ms=N/A\n",
      "\n",
      "out_time=N/A\n",
      "\n",
      "dup_frames=0\n",
      "\n",
      "drop_frames=124\n",
      "\n",
      "speed=N/A\n",
      "\n",
      "progress=continue\n",
      "\n",
      "frame=    0 fps=0.0 q=0.0 size=       0KiB time=N/A bitrate=N/A dup=0 drop=136 speed=N/A    \n",
      "\n",
      "frame=0\n",
      "\n",
      "fps=0.00\n",
      "\n",
      "stream_0_1_q=0.0\n",
      "\n",
      "bitrate=N/A\n",
      "\n",
      "total_size=48\n",
      "\n",
      "out_time_us=N/A\n",
      "\n",
      "out_time_ms=N/A\n",
      "\n",
      "out_time=N/A\n",
      "\n",
      "dup_frames=0\n",
      "\n",
      "drop_frames=136\n",
      "\n",
      "speed=N/A\n",
      "\n",
      "progress=continue\n",
      "\n",
      "frame=    0 fps=0.0 q=0.0 size=       0KiB time=N/A bitrate=N/A dup=0 drop=156 speed=N/A    \n",
      "\n",
      "frame=0\n",
      "\n",
      "fps=0.00\n",
      "\n",
      "stream_0_1_q=0.0\n",
      "\n",
      "bitrate=N/A\n",
      "\n",
      "total_size=48\n",
      "\n",
      "out_time_us=N/A\n",
      "\n",
      "out_time_ms=N/A\n",
      "\n",
      "out_time=N/A\n",
      "\n",
      "dup_frames=0\n",
      "\n",
      "drop_frames=156\n",
      "\n",
      "speed=N/A\n",
      "\n",
      "progress=continue\n",
      "\n",
      "frame=    0 fps=0.0 q=0.0 size=       0KiB time=N/A bitrate=N/A dup=0 drop=163 speed=N/A    \n",
      "\n",
      "frame=0\n",
      "\n",
      "fps=0.00\n",
      "\n",
      "stream_0_1_q=0.0\n",
      "\n",
      "bitrate=N/A\n",
      "\n",
      "total_size=48\n",
      "\n",
      "out_time_us=N/A\n",
      "\n",
      "out_time_ms=N/A\n",
      "\n",
      "out_time=N/A\n",
      "\n",
      "dup_frames=0\n",
      "\n",
      "drop_frames=163\n",
      "\n",
      "speed=N/A\n",
      "\n",
      "progress=continue\n",
      "\n",
      "frame=    0 fps=0.0 q=0.0 size=       0KiB time=N/A bitrate=N/A dup=0 drop=166 speed=N/A    \n",
      "\n",
      "frame=0\n",
      "\n",
      "fps=0.00\n",
      "\n",
      "stream_0_1_q=0.0\n",
      "\n",
      "bitrate=N/A\n",
      "\n",
      "total_size=48\n",
      "\n",
      "out_time_us=N/A\n",
      "\n",
      "out_time_ms=N/A\n",
      "\n",
      "out_time=N/A\n",
      "\n",
      "dup_frames=0\n",
      "\n",
      "drop_frames=166\n",
      "\n",
      "speed=N/A\n",
      "\n",
      "progress=continue\n",
      "\n",
      "frame=    0 fps=0.0 q=0.0 size=       0KiB time=N/A bitrate=N/A dup=0 drop=192 speed=N/A    \n",
      "\n",
      "frame=0\n",
      "\n",
      "fps=0.00\n",
      "\n",
      "stream_0_1_q=0.0\n",
      "\n",
      "bitrate=N/A\n",
      "\n",
      "total_size=48\n",
      "\n",
      "out_time_us=N/A\n",
      "\n",
      "out_time_ms=N/A\n",
      "\n",
      "out_time=N/A\n",
      "\n",
      "dup_frames=0\n",
      "\n",
      "drop_frames=192\n",
      "\n",
      "speed=N/A\n",
      "\n",
      "progress=continue\n",
      "\n",
      "frame=    0 fps=0.0 q=0.0 size=       0KiB time=N/A bitrate=N/A dup=0 drop=198 speed=N/A    \n",
      "\n",
      "frame=0\n",
      "\n",
      "fps=0.00\n",
      "\n",
      "stream_0_1_q=0.0\n",
      "\n",
      "bitrate=N/A\n",
      "\n",
      "total_size=48\n",
      "\n",
      "out_time_us=N/A\n",
      "\n",
      "out_time_ms=N/A\n",
      "\n",
      "out_time=N/A\n",
      "\n",
      "dup_frames=0\n",
      "\n",
      "drop_frames=198\n",
      "\n",
      "speed=N/A\n",
      "\n",
      "progress=continue\n",
      "\n",
      "frame=    0 fps=0.0 q=0.0 size=       0KiB time=N/A bitrate=N/A dup=0 drop=208 speed=N/A    \n",
      "\n",
      "frame=0\n",
      "\n",
      "fps=0.00\n",
      "\n",
      "stream_0_1_q=0.0\n",
      "\n",
      "bitrate=N/A\n",
      "\n",
      "total_size=48\n",
      "\n",
      "out_time_us=N/A\n",
      "\n",
      "out_time_ms=N/A\n",
      "\n",
      "out_time=N/A\n",
      "\n",
      "dup_frames=0\n",
      "\n",
      "drop_frames=208\n",
      "\n",
      "speed=N/A\n",
      "\n",
      "progress=continue\n",
      "\n",
      "frame=    1 fps=0.0 q=26.0 size=       0KiB time=-00:00:00.04 bitrate=N/A dup=0 drop=223 speed=N/A    \n",
      "\n",
      "frame=1\n",
      "\n",
      "fps=0.01\n",
      "\n",
      "stream_0_1_q=26.0\n",
      "\n",
      "bitrate=N/A\n",
      "\n",
      "total_size=48\n",
      "\n",
      "out_time_us=-40000\n",
      "\n",
      "out_time_ms=-40000\n",
      "\n",
      "out_time=-00:00:00.040000\n",
      "\n",
      "dup_frames=0\n",
      "\n",
      "drop_frames=223\n",
      "\n",
      "speed=N/A\n",
      "\n",
      "progress=continue\n",
      "\n",
      "frame=    1 fps=0.0 q=26.0 size=       0KiB time=-00:00:00.04 bitrate=N/A dup=0 drop=227 speed=N/A    \n",
      "\n",
      "frame=1\n",
      "\n",
      "fps=0.01\n",
      "\n",
      "stream_0_1_q=26.0\n",
      "\n",
      "bitrate=N/A\n",
      "\n",
      "total_size=48\n",
      "\n",
      "out_time_us=-40000\n",
      "\n",
      "out_time_ms=-40000\n",
      "\n",
      "out_time=-00:00:00.040000\n",
      "\n",
      "dup_frames=0\n",
      "\n",
      "drop_frames=227\n",
      "\n",
      "speed=N/A\n",
      "\n",
      "progress=continue\n",
      "\n",
      "frame=    1 fps=0.0 q=26.0 size=     512KiB time=-00:00:00.04 bitrate=N/A dup=0 drop=239 speed=N/A    \n",
      "\n",
      "frame=1\n",
      "\n",
      "fps=0.01\n",
      "\n",
      "stream_0_1_q=26.0\n",
      "\n",
      "bitrate=N/A\n",
      "\n",
      "total_size=524336\n",
      "\n",
      "out_time_us=-40000\n",
      "\n",
      "out_time_ms=-40000\n",
      "\n",
      "out_time=-00:00:00.040000\n",
      "\n",
      "dup_frames=0\n",
      "\n",
      "drop_frames=239\n",
      "\n",
      "speed=N/A\n",
      "\n",
      "progress=continue\n",
      "\n",
      "frame=    5 fps=0.1 q=26.0 size=     768KiB time=00:00:00.12 bitrate=52432.0kbits/s dup=0 drop=260 speed=0.00151x    \n",
      "\n",
      "frame=5\n",
      "\n",
      "fps=0.06\n",
      "\n",
      "stream_0_1_q=26.0\n",
      "\n",
      "bitrate=52432.0kbits/s\n",
      "\n",
      "total_size=786480\n",
      "\n",
      "out_time_us=120000\n",
      "\n",
      "out_time_ms=120000\n",
      "\n",
      "out_time=00:00:00.120000\n",
      "\n",
      "dup_frames=0\n",
      "\n",
      "drop_frames=260\n",
      "\n",
      "speed=0.00151x\n",
      "\n",
      "progress=continue\n",
      "\n",
      "frame=    5 fps=0.1 q=26.0 size=     768KiB time=00:00:00.12 bitrate=52432.0kbits/s dup=0 drop=262 speed=0.0015x    \n",
      "\n",
      "frame=5\n",
      "\n",
      "fps=0.06\n",
      "\n",
      "stream_0_1_q=26.0\n",
      "\n",
      "bitrate=52432.0kbits/s\n",
      "\n",
      "total_size=786480\n",
      "\n",
      "out_time_us=120000\n",
      "\n",
      "out_time_ms=120000\n",
      "\n",
      "out_time=00:00:00.120000\n",
      "\n",
      "dup_frames=0\n",
      "\n",
      "drop_frames=262\n",
      "\n",
      "speed=0.0015x\n",
      "\n",
      "progress=continue\n",
      "\n",
      "frame=    5 fps=0.1 q=26.0 size=     768KiB time=00:00:00.12 bitrate=52432.0kbits/s dup=0 drop=272 speed=0.00149x    \n",
      "\n",
      "frame=5\n",
      "\n",
      "fps=0.06\n",
      "\n",
      "stream_0_1_q=26.0\n",
      "\n",
      "bitrate=52432.0kbits/s\n",
      "\n",
      "total_size=786480\n",
      "\n",
      "out_time_us=120000\n",
      "\n",
      "out_time_ms=120000\n",
      "\n",
      "out_time=00:00:00.120000\n",
      "\n",
      "dup_frames=0\n",
      "\n",
      "drop_frames=272\n",
      "\n",
      "speed=0.00149x\n",
      "\n",
      "progress=continue\n",
      "\n",
      "frame=   10 fps=0.1 q=26.0 size=    1280KiB time=00:00:00.32 bitrate=32769.2kbits/s dup=0 drop=282 speed=0.00395x    \n",
      "\n",
      "frame=10\n",
      "\n",
      "fps=0.12\n",
      "\n",
      "stream_0_1_q=26.0\n",
      "\n",
      "bitrate=32769.2kbits/s\n",
      "\n",
      "total_size=1310768\n",
      "\n",
      "out_time_us=320000\n",
      "\n",
      "out_time_ms=320000\n",
      "\n",
      "out_time=00:00:00.320000\n",
      "\n",
      "dup_frames=0\n",
      "\n",
      "drop_frames=282\n",
      "\n",
      "speed=0.00395x\n",
      "\n",
      "progress=continue\n",
      "\n",
      "frame=   13 fps=0.2 q=26.0 size=    1536KiB time=00:00:00.44 bitrate=28598.4kbits/s dup=0 drop=286 speed=0.0054x    \n",
      "\n",
      "frame=13\n",
      "\n",
      "fps=0.16\n",
      "\n",
      "stream_0_1_q=26.0\n",
      "\n",
      "bitrate=28598.4kbits/s\n",
      "\n",
      "total_size=1572912\n",
      "\n",
      "out_time_us=440000\n",
      "\n",
      "out_time_ms=440000\n",
      "\n",
      "out_time=00:00:00.440000\n",
      "\n",
      "dup_frames=0\n",
      "\n",
      "drop_frames=286\n",
      "\n",
      "speed=0.0054x\n",
      "\n",
      "progress=continue\n",
      "\n",
      "frame=   13 fps=0.2 q=26.0 size=    1792KiB time=00:00:00.44 bitrate=33364.7kbits/s dup=0 drop=305 speed=0.00536x    \n",
      "\n",
      "frame=13\n",
      "\n",
      "fps=0.16\n",
      "\n",
      "stream_0_1_q=26.0\n",
      "\n",
      "bitrate=33364.7kbits/s\n",
      "\n",
      "total_size=1835056\n",
      "\n",
      "out_time_us=440000\n",
      "\n",
      "out_time_ms=440000\n",
      "\n",
      "out_time=00:00:00.440000\n",
      "\n",
      "dup_frames=0\n",
      "\n",
      "drop_frames=305\n",
      "\n",
      "speed=0.00536x\n",
      "\n",
      "progress=continue\n",
      "\n",
      "frame=   17 fps=0.2 q=26.0 size=    2048KiB time=00:00:00.60 bitrate=27962.7kbits/s dup=0 drop=318 speed=0.00727x    \n",
      "\n",
      "frame=17\n",
      "\n",
      "fps=0.21\n",
      "\n",
      "stream_0_1_q=26.0\n",
      "\n",
      "bitrate=27962.7kbits/s\n",
      "\n",
      "total_size=2097200\n",
      "\n",
      "out_time_us=600000\n",
      "\n",
      "out_time_ms=600000\n",
      "\n",
      "out_time=00:00:00.600000\n",
      "\n",
      "dup_frames=0\n",
      "\n",
      "drop_frames=318\n",
      "\n",
      "speed=0.00727x\n",
      "\n",
      "progress=continue\n",
      "\n",
      "frame=   17 fps=0.2 q=26.0 size=    2048KiB time=00:00:00.60 bitrate=27962.7kbits/s dup=0 drop=329 speed=0.00722x    \n",
      "\n",
      "frame=17\n",
      "\n",
      "fps=0.20\n",
      "\n",
      "stream_0_1_q=26.0\n",
      "\n",
      "bitrate=27962.7kbits/s\n",
      "\n",
      "total_size=2097200\n",
      "\n",
      "out_time_us=600000\n",
      "\n",
      "out_time_ms=600000\n",
      "\n",
      "out_time=00:00:00.600000\n",
      "\n",
      "dup_frames=0\n",
      "\n",
      "drop_frames=329\n",
      "\n",
      "speed=0.00722x\n",
      "\n",
      "progress=continue\n",
      "\n",
      "frame=   17 fps=0.2 q=26.0 size=    2048KiB time=00:00:00.60 bitrate=27962.7kbits/s dup=0 drop=334 speed=0.00718x    \n",
      "\n",
      "frame=17\n",
      "\n",
      "fps=0.20\n",
      "\n",
      "stream_0_1_q=26.0\n",
      "\n",
      "bitrate=27962.7kbits/s\n",
      "\n",
      "total_size=2097200\n",
      "\n",
      "out_time_us=600000\n",
      "\n",
      "out_time_ms=600000\n",
      "\n",
      "out_time=00:00:00.600000\n",
      "\n",
      "dup_frames=0\n",
      "\n",
      "drop_frames=334\n",
      "\n",
      "speed=0.00718x\n",
      "\n",
      "progress=continue\n",
      "\n",
      "frame=   25 fps=0.3 q=26.0 size=    2816KiB time=00:00:00.92 bitrate=25075.1kbits/s dup=0 drop=343 speed=0.0109x    \n",
      "\n",
      "frame=25\n",
      "\n",
      "fps=0.30\n",
      "\n",
      "stream_0_1_q=26.0\n",
      "\n",
      "bitrate=25075.1kbits/s\n",
      "\n",
      "total_size=2883632\n",
      "\n",
      "out_time_us=920000\n",
      "\n",
      "out_time_ms=920000\n",
      "\n",
      "out_time=00:00:00.920000\n",
      "\n",
      "dup_frames=0\n",
      "\n",
      "drop_frames=343\n",
      "\n",
      "speed=0.0109x\n",
      "\n",
      "progress=continue\n",
      "\n",
      "frame=   25 fps=0.3 q=26.0 size=    2816KiB time=00:00:00.92 bitrate=25075.1kbits/s dup=0 drop=347 speed=0.0109x    \n",
      "\n",
      "frame=25\n",
      "\n",
      "fps=0.30\n",
      "\n",
      "stream_0_1_q=26.0\n",
      "\n",
      "bitrate=25075.1kbits/s\n",
      "\n",
      "total_size=2883632\n",
      "\n",
      "out_time_us=920000\n",
      "\n",
      "out_time_ms=920000\n",
      "\n",
      "out_time=00:00:00.920000\n",
      "\n",
      "dup_frames=0\n",
      "\n",
      "drop_frames=347\n",
      "\n",
      "speed=0.0109x\n",
      "\n",
      "progress=continue\n",
      "\n",
      "frame=   25 fps=0.3 q=26.0 size=    2816KiB time=00:00:00.92 bitrate=25075.1kbits/s dup=0 drop=364 speed=0.0108x    \n",
      "\n",
      "frame=25\n",
      "\n",
      "fps=0.29\n",
      "\n",
      "stream_0_1_q=26.0\n",
      "\n",
      "bitrate=25075.1kbits/s\n",
      "\n",
      "total_size=2883632\n",
      "\n",
      "out_time_us=920000\n",
      "\n",
      "out_time_ms=920000\n",
      "\n",
      "out_time=00:00:00.920000\n",
      "\n",
      "dup_frames=0\n",
      "\n",
      "drop_frames=364\n",
      "\n",
      "speed=0.0108x\n",
      "\n",
      "progress=continue\n",
      "\n",
      "frame=   29 fps=0.3 q=26.0 size=    3328KiB time=00:00:01.08 bitrate=25243.9kbits/s dup=0 drop=368 speed=0.0126x    \n",
      "\n",
      "frame=29\n",
      "\n",
      "fps=0.34\n",
      "\n",
      "stream_0_1_q=26.0\n",
      "\n",
      "bitrate=25243.9kbits/s\n",
      "\n",
      "total_size=3407920\n",
      "\n",
      "out_time_us=1080000\n",
      "\n",
      "out_time_ms=1080000\n",
      "\n",
      "out_time=00:00:01.080000\n",
      "\n",
      "dup_frames=0\n",
      "\n",
      "drop_frames=368\n",
      "\n",
      "speed=0.0126x\n",
      "\n",
      "progress=continue\n",
      "\n",
      "frame=   29 fps=0.3 q=26.0 size=    3328KiB time=00:00:01.08 bitrate=25243.9kbits/s dup=0 drop=377 speed=0.0125x    \n",
      "\n",
      "frame=29\n",
      "\n",
      "fps=0.34\n",
      "\n",
      "stream_0_1_q=26.0\n",
      "\n",
      "bitrate=25243.9kbits/s\n",
      "\n",
      "total_size=3407920\n",
      "\n",
      "out_time_us=1080000\n",
      "\n",
      "out_time_ms=1080000\n",
      "\n",
      "out_time=00:00:01.080000\n",
      "\n",
      "dup_frames=0\n",
      "\n",
      "drop_frames=377\n",
      "\n",
      "speed=0.0125x\n",
      "\n",
      "progress=continue\n",
      "\n",
      "frame=   29 fps=0.3 q=26.0 size=    3328KiB time=00:00:01.08 bitrate=25243.9kbits/s dup=0 drop=389 speed=0.0124x    \n",
      "\n",
      "frame=29\n",
      "\n",
      "fps=0.33\n",
      "\n",
      "stream_0_1_q=26.0\n",
      "\n",
      "bitrate=25243.9kbits/s\n",
      "\n",
      "total_size=3407920\n",
      "\n",
      "out_time_us=1080000\n",
      "\n",
      "out_time_ms=1080000\n",
      "\n",
      "out_time=00:00:01.080000\n",
      "\n",
      "dup_frames=0\n",
      "\n",
      "drop_frames=389\n",
      "\n",
      "speed=0.0124x\n",
      "\n",
      "progress=continue\n",
      "\n",
      "frame=   37 fps=0.4 q=26.0 size=    4096KiB time=00:00:01.40 bitrate=23967.7kbits/s dup=0 drop=395 speed=0.016x    \n",
      "\n",
      "frame=37\n",
      "\n",
      "fps=0.42\n",
      "\n",
      "stream_0_1_q=26.0\n",
      "\n",
      "bitrate=23967.7kbits/s\n",
      "\n",
      "total_size=4194352\n",
      "\n",
      "out_time_us=1400000\n",
      "\n",
      "out_time_ms=1400000\n",
      "\n",
      "out_time=00:00:01.400000\n",
      "\n",
      "dup_frames=0\n",
      "\n",
      "drop_frames=395\n",
      "\n",
      "speed=0.016x\n",
      "\n",
      "progress=continue\n",
      "\n",
      "frame=   37 fps=0.4 q=26.0 size=    4096KiB time=00:00:01.40 bitrate=23967.7kbits/s dup=0 drop=417 speed=0.0159x    \n",
      "\n",
      "frame=37\n",
      "\n",
      "fps=0.42\n",
      "\n",
      "stream_0_1_q=26.0\n",
      "\n",
      "bitrate=23967.7kbits/s\n",
      "\n",
      "total_size=4194352\n",
      "\n",
      "out_time_us=1400000\n",
      "\n",
      "out_time_ms=1400000\n",
      "\n",
      "out_time=00:00:01.400000\n",
      "\n",
      "dup_frames=0\n",
      "\n",
      "drop_frames=417\n",
      "\n",
      "speed=0.0159x\n",
      "\n",
      "progress=continue\n",
      "\n",
      "frame=   37 fps=0.4 q=26.0 size=    4096KiB time=00:00:01.40 bitrate=23967.7kbits/s dup=0 drop=428 speed=0.0158x    \n",
      "\n",
      "frame=37\n",
      "\n",
      "fps=0.42\n",
      "\n",
      "stream_0_1_q=26.0\n",
      "\n",
      "bitrate=23967.7kbits/s\n",
      "\n",
      "total_size=4194352\n",
      "\n",
      "out_time_us=1400000\n",
      "\n",
      "out_time_ms=1400000\n",
      "\n",
      "out_time=00:00:01.400000\n",
      "\n",
      "dup_frames=0\n",
      "\n",
      "drop_frames=428\n",
      "\n",
      "speed=0.0158x\n",
      "\n",
      "progress=continue\n",
      "\n",
      "frame=   41 fps=0.5 q=26.0 size=    4352KiB time=00:00:01.56 bitrate=22853.8kbits/s dup=0 drop=436 speed=0.0176x    \n",
      "\n",
      "frame=41\n",
      "\n",
      "fps=0.46\n",
      "\n",
      "stream_0_1_q=26.0\n",
      "\n",
      "bitrate=22853.8kbits/s\n",
      "\n",
      "total_size=4456496\n",
      "\n",
      "out_time_us=1560000\n",
      "\n",
      "out_time_ms=1560000\n",
      "\n",
      "out_time=00:00:01.560000\n",
      "\n",
      "dup_frames=0\n",
      "\n",
      "drop_frames=436\n",
      "\n",
      "speed=0.0176x\n",
      "\n",
      "progress=continue\n",
      "\n",
      "frame=   45 fps=0.5 q=26.0 size=    4864KiB time=00:00:01.72 bitrate=23166.4kbits/s dup=0 drop=448 speed=0.0192x    \n",
      "\n",
      "frame=45\n",
      "\n",
      "fps=0.50\n",
      "\n",
      "stream_0_1_q=26.0\n",
      "\n",
      "bitrate=23166.4kbits/s\n",
      "\n",
      "total_size=4980784\n",
      "\n",
      "out_time_us=1720000\n",
      "\n",
      "out_time_ms=1720000\n",
      "\n",
      "out_time=00:00:01.720000\n",
      "\n",
      "dup_frames=0\n",
      "\n",
      "drop_frames=448\n",
      "\n",
      "speed=0.0192x\n",
      "\n",
      "progress=continue\n",
      "\n",
      "frame=   49 fps=0.5 q=26.0 size=    5376KiB time=00:00:01.88 bitrate=23425.8kbits/s dup=0 drop=452 speed=0.0209x    \n",
      "\n",
      "frame=49\n",
      "\n",
      "fps=0.55\n",
      "\n",
      "stream_0_1_q=26.0\n",
      "\n",
      "bitrate=23425.8kbits/s\n",
      "\n",
      "total_size=5505072\n",
      "\n",
      "out_time_us=1880000\n",
      "\n",
      "out_time_ms=1880000\n",
      "\n",
      "out_time=00:00:01.880000\n",
      "\n",
      "dup_frames=0\n",
      "\n",
      "drop_frames=452\n",
      "\n",
      "speed=0.0209x\n",
      "\n",
      "progress=continue\n",
      "\n",
      "frame=   49 fps=0.5 q=26.0 size=    5376KiB time=00:00:01.88 bitrate=23425.8kbits/s dup=0 drop=464 speed=0.0208x    \n",
      "\n",
      "frame=49\n",
      "\n",
      "fps=0.54\n",
      "\n",
      "stream_0_1_q=26.0\n",
      "\n",
      "bitrate=23425.8kbits/s\n",
      "\n",
      "total_size=5505072\n",
      "\n",
      "out_time_us=1880000\n",
      "\n",
      "out_time_ms=1880000\n",
      "\n",
      "out_time=00:00:01.880000\n",
      "\n",
      "dup_frames=0\n",
      "\n",
      "drop_frames=464\n",
      "\n",
      "speed=0.0208x\n",
      "\n",
      "progress=continue\n",
      "\n",
      "frame=   49 fps=0.5 q=26.0 size=    5376KiB time=00:00:01.88 bitrate=23425.8kbits/s dup=0 drop=465 speed=0.0207x    \n",
      "\n",
      "frame=49\n",
      "\n",
      "fps=0.54\n",
      "\n",
      "stream_0_1_q=26.0\n",
      "\n",
      "bitrate=23425.8kbits/s\n",
      "\n",
      "total_size=5505072\n",
      "\n",
      "out_time_us=1880000\n",
      "\n",
      "out_time_ms=1880000\n",
      "\n",
      "out_time=00:00:01.880000\n",
      "\n",
      "dup_frames=0\n",
      "\n",
      "drop_frames=465\n",
      "\n",
      "speed=0.0207x\n",
      "\n",
      "progress=continue\n",
      "\n",
      "frame=   53 fps=0.6 q=26.0 size=    5632KiB time=00:00:02.04 bitrate=22616.5kbits/s dup=0 drop=480 speed=0.0223x    \n",
      "\n",
      "frame=53\n",
      "\n",
      "fps=0.58\n",
      "\n",
      "stream_0_1_q=26.0\n",
      "\n",
      "bitrate=22616.5kbits/s\n",
      "\n",
      "total_size=5767216\n",
      "\n",
      "out_time_us=2040000\n",
      "\n",
      "out_time_ms=2040000\n",
      "\n",
      "out_time=00:00:02.040000\n",
      "\n",
      "dup_frames=0\n",
      "\n",
      "drop_frames=480\n",
      "\n",
      "speed=0.0223x\n",
      "\n",
      "progress=continue\n",
      "\n",
      "frame=   58 fps=0.6 q=26.0 size=    5888KiB time=00:00:02.24 bitrate=21533.4kbits/s dup=0 drop=489 speed=0.0244x    \n",
      "\n",
      "frame=58\n",
      "\n",
      "fps=0.63\n",
      "\n",
      "stream_0_1_q=26.0\n",
      "\n",
      "bitrate=21533.4kbits/s\n",
      "\n",
      "total_size=6029360\n",
      "\n",
      "out_time_us=2240000\n",
      "\n",
      "out_time_ms=2240000\n",
      "\n",
      "out_time=00:00:02.240000\n",
      "\n",
      "dup_frames=0\n",
      "\n",
      "drop_frames=489\n",
      "\n",
      "speed=0.0244x\n",
      "\n",
      "progress=continue\n",
      "\n",
      "frame=   61 fps=0.7 q=26.0 size=    6400KiB time=00:00:02.36 bitrate=22215.8kbits/s dup=0 drop=501 speed=0.0255x    \n",
      "\n",
      "frame=61\n",
      "\n",
      "fps=0.66\n",
      "\n",
      "stream_0_1_q=26.0\n",
      "\n",
      "bitrate=22215.8kbits/s\n",
      "\n",
      "total_size=6553648\n",
      "\n",
      "out_time_us=2360000\n",
      "\n",
      "out_time_ms=2360000\n",
      "\n",
      "out_time=00:00:02.360000\n",
      "\n",
      "dup_frames=0\n",
      "\n",
      "drop_frames=501\n",
      "\n",
      "speed=0.0255x\n",
      "\n",
      "progress=continue\n",
      "\n",
      "frame=   61 fps=0.7 q=26.0 size=    6400KiB time=00:00:02.36 bitrate=22215.8kbits/s dup=0 drop=505 speed=0.0254x    \n",
      "\n",
      "frame=61\n",
      "\n",
      "fps=0.66\n",
      "\n",
      "stream_0_1_q=26.0\n",
      "\n",
      "bitrate=22215.8kbits/s\n",
      "\n",
      "total_size=6553648\n",
      "\n",
      "out_time_us=2360000\n",
      "\n",
      "out_time_ms=2360000\n",
      "\n",
      "out_time=00:00:02.360000\n",
      "\n",
      "dup_frames=0\n",
      "\n",
      "drop_frames=505\n",
      "\n",
      "speed=0.0254x\n",
      "\n",
      "progress=continue\n",
      "\n",
      "frame=   61 fps=0.7 q=26.0 size=    6400KiB time=00:00:02.36 bitrate=22215.8kbits/s dup=0 drop=515 speed=0.0252x    \n",
      "\n",
      "frame=61\n",
      "\n",
      "fps=0.65\n",
      "\n",
      "stream_0_1_q=26.0\n",
      "\n",
      "bitrate=22215.8kbits/s\n",
      "\n",
      "total_size=6553648\n",
      "\n",
      "out_time_us=2360000\n",
      "\n",
      "out_time_ms=2360000\n",
      "\n",
      "out_time=00:00:02.360000\n",
      "\n",
      "dup_frames=0\n",
      "\n",
      "drop_frames=515\n",
      "\n",
      "speed=0.0252x\n",
      "\n",
      "progress=continue\n",
      "\n",
      "frame=   61 fps=0.6 q=26.0 size=    6400KiB time=00:00:02.36 bitrate=22215.8kbits/s dup=0 drop=530 speed=0.0251x    \n",
      "\n",
      "frame=61\n",
      "\n",
      "fps=0.65\n",
      "\n",
      "stream_0_1_q=26.0\n",
      "\n",
      "bitrate=22215.8kbits/s\n",
      "\n",
      "total_size=6553648\n",
      "\n",
      "out_time_us=2360000\n",
      "\n",
      "out_time_ms=2360000\n",
      "\n",
      "out_time=00:00:02.360000\n",
      "\n",
      "dup_frames=0\n",
      "\n",
      "drop_frames=530\n",
      "\n",
      "speed=0.0251x\n",
      "\n",
      "progress=continue\n",
      "\n",
      "frame=   65 fps=0.7 q=26.0 size=    6656KiB time=00:00:02.52 bitrate=21637.4kbits/s dup=0 drop=540 speed=0.0266x    \n",
      "\n",
      "frame=65\n",
      "\n",
      "fps=0.69\n",
      "\n",
      "stream_0_1_q=26.0\n",
      "\n",
      "bitrate=21637.4kbits/s\n",
      "\n",
      "total_size=6815792\n",
      "\n",
      "out_time_us=2520000\n",
      "\n",
      "out_time_ms=2520000\n",
      "\n",
      "out_time=00:00:02.520000\n",
      "\n",
      "dup_frames=0\n",
      "\n",
      "drop_frames=540\n",
      "\n",
      "speed=0.0266x\n",
      "\n",
      "progress=continue\n",
      "\n",
      "frame=   65 fps=0.7 q=26.0 size=    6656KiB time=00:00:02.52 bitrate=21637.4kbits/s dup=0 drop=550 speed=0.0265x    \n",
      "\n",
      "frame=65\n",
      "\n",
      "fps=0.68\n",
      "\n",
      "stream_0_1_q=26.0\n",
      "\n",
      "bitrate=21637.4kbits/s\n",
      "\n",
      "total_size=6815792\n",
      "\n",
      "out_time_us=2520000\n",
      "\n",
      "out_time_ms=2520000\n",
      "\n",
      "out_time=00:00:02.520000\n",
      "\n",
      "dup_frames=0\n",
      "\n",
      "drop_frames=550\n",
      "\n",
      "speed=0.0265x\n",
      "\n",
      "progress=continue\n",
      "\n",
      "frame=   70 fps=0.7 q=26.0 size=    7168KiB time=00:00:02.72 bitrate=21588.5kbits/s dup=0 drop=562 speed=0.0284x    \n",
      "\n",
      "frame=70\n",
      "\n",
      "fps=0.73\n",
      "\n",
      "stream_0_1_q=26.0\n",
      "\n",
      "bitrate=21588.5kbits/s\n",
      "\n",
      "total_size=7340080\n",
      "\n",
      "out_time_us=2720000\n",
      "\n",
      "out_time_ms=2720000\n",
      "\n",
      "out_time=00:00:02.720000\n",
      "\n",
      "dup_frames=0\n",
      "\n",
      "drop_frames=562\n",
      "\n",
      "speed=0.0284x\n",
      "\n",
      "progress=continue\n",
      "\n",
      "frame=   73 fps=0.8 q=26.0 size=    7424KiB time=00:00:02.84 bitrate=21414.7kbits/s dup=0 drop=563 speed=0.0295x    \n",
      "\n",
      "frame=73\n",
      "\n",
      "fps=0.76\n",
      "\n",
      "stream_0_1_q=26.0\n",
      "\n",
      "bitrate=21414.7kbits/s\n",
      "\n",
      "total_size=7602224\n",
      "\n",
      "out_time_us=2840000\n",
      "\n",
      "out_time_ms=2840000\n",
      "\n",
      "out_time=00:00:02.840000\n",
      "\n",
      "dup_frames=0\n",
      "\n",
      "drop_frames=563\n",
      "\n",
      "speed=0.0295x\n",
      "\n",
      "progress=continue\n",
      "\n",
      "frame=   73 fps=0.8 q=26.0 size=    7424KiB time=00:00:02.84 bitrate=21414.7kbits/s dup=0 drop=573 speed=0.0294x    \n",
      "\n",
      "frame=73\n",
      "\n",
      "fps=0.75\n",
      "\n",
      "stream_0_1_q=26.0\n",
      "\n",
      "bitrate=21414.7kbits/s\n",
      "\n",
      "total_size=7602224\n",
      "\n",
      "out_time_us=2840000\n",
      "\n",
      "out_time_ms=2840000\n",
      "\n",
      "out_time=00:00:02.840000\n",
      "\n",
      "dup_frames=0\n",
      "\n",
      "drop_frames=573\n",
      "\n",
      "speed=0.0294x\n",
      "\n",
      "progress=continue\n",
      "\n",
      "frame=   73 fps=0.8 q=26.0 size=    7424KiB time=00:00:02.84 bitrate=21414.7kbits/s dup=0 drop=580 speed=0.0292x    \n",
      "\n",
      "frame=73\n",
      "\n",
      "fps=0.75\n",
      "\n",
      "stream_0_1_q=26.0\n",
      "\n",
      "bitrate=21414.7kbits/s\n",
      "\n",
      "total_size=7602224\n",
      "\n",
      "out_time_us=2840000\n",
      "\n",
      "out_time_ms=2840000\n",
      "\n",
      "out_time=00:00:02.840000\n",
      "\n",
      "dup_frames=0\n",
      "\n",
      "drop_frames=580\n",
      "\n",
      "speed=0.0292x\n",
      "\n",
      "progress=continue\n",
      "\n",
      "frame=   77 fps=0.8 q=26.0 size=    7936KiB time=N/A bitrate=N/A dup=0 drop=587 speed=N/A    \n",
      "\n",
      "frame=77\n",
      "\n",
      "fps=0.79\n",
      "\n",
      "stream_0_1_q=26.0\n",
      "\n",
      "bitrate=N/A\n",
      "\n",
      "total_size=8126512\n",
      "\n",
      "out_time_us=N/A\n",
      "\n",
      "out_time_ms=N/A\n",
      "\n",
      "out_time=N/A\n",
      "\n",
      "dup_frames=0\n",
      "\n",
      "drop_frames=587\n",
      "\n",
      "speed=N/A\n",
      "\n",
      "progress=continue\n",
      "\n",
      "frame=   85 fps=0.9 q=26.0 size=    8448KiB time=N/A bitrate=N/A dup=0 drop=587 speed=N/A    \n",
      "\n",
      "frame=85\n",
      "\n",
      "fps=0.86\n",
      "\n",
      "stream_0_1_q=26.0\n",
      "\n",
      "bitrate=N/A\n",
      "\n",
      "total_size=8650800\n",
      "\n",
      "out_time_us=N/A\n",
      "\n",
      "out_time_ms=N/A\n",
      "\n",
      "out_time=N/A\n",
      "\n",
      "dup_frames=0\n",
      "\n",
      "drop_frames=587\n",
      "\n",
      "speed=N/A\n",
      "\n",
      "progress=continue\n",
      "\n",
      "frame=   85 fps=0.9 q=26.0 size=    8448KiB time=N/A bitrate=N/A dup=0 drop=587 speed=N/A    \n",
      "\n",
      "frame=85\n",
      "\n",
      "fps=0.86\n",
      "\n",
      "stream_0_1_q=26.0\n",
      "\n",
      "bitrate=N/A\n",
      "\n",
      "total_size=8650800\n",
      "\n",
      "out_time_us=N/A\n",
      "\n",
      "out_time_ms=N/A\n",
      "\n",
      "out_time=N/A\n",
      "\n",
      "dup_frames=0\n",
      "\n",
      "drop_frames=587\n",
      "\n",
      "speed=N/A\n",
      "\n",
      "progress=continue\n",
      "\n",
      "frame=   94 fps=0.9 q=26.0 size=    9216KiB time=N/A bitrate=N/A dup=0 drop=587 speed=N/A    \n",
      "\n",
      "frame=94\n",
      "\n",
      "fps=0.95\n",
      "\n",
      "stream_0_1_q=26.0\n",
      "\n",
      "bitrate=N/A\n",
      "\n",
      "total_size=9437232\n",
      "\n",
      "out_time_us=N/A\n",
      "\n",
      "out_time_ms=N/A\n",
      "\n",
      "out_time=N/A\n",
      "\n",
      "dup_frames=0\n",
      "\n",
      "drop_frames=587\n",
      "\n",
      "speed=N/A\n",
      "\n",
      "progress=continue\n",
      "\n",
      "frame=   97 fps=1.0 q=26.0 size=    9728KiB time=N/A bitrate=N/A dup=0 drop=587 speed=N/A    \n",
      "\n",
      "frame=97\n",
      "\n",
      "fps=0.97\n",
      "\n",
      "stream_0_1_q=26.0\n",
      "\n",
      "bitrate=N/A\n",
      "\n",
      "total_size=9961520\n",
      "\n",
      "out_time_us=N/A\n",
      "\n",
      "out_time_ms=N/A\n",
      "\n",
      "out_time=N/A\n",
      "\n",
      "dup_frames=0\n",
      "\n",
      "drop_frames=587\n",
      "\n",
      "speed=N/A\n",
      "\n",
      "progress=continue\n",
      "\n",
      "frame=  103 fps=1.0 q=26.0 size=   10240KiB time=N/A bitrate=N/A dup=0 drop=587 speed=N/A    \n",
      "\n",
      "frame=103\n",
      "\n",
      "fps=1.03\n",
      "\n",
      "stream_0_1_q=26.0\n",
      "\n",
      "bitrate=N/A\n",
      "\n",
      "total_size=10485808\n",
      "\n",
      "out_time_us=N/A\n",
      "\n",
      "out_time_ms=N/A\n",
      "\n",
      "out_time=N/A\n",
      "\n",
      "dup_frames=0\n",
      "\n",
      "drop_frames=587\n",
      "\n",
      "speed=N/A\n",
      "\n",
      "progress=continue\n",
      "\n",
      "frame=  109 fps=1.1 q=26.0 size=   10752KiB time=N/A bitrate=N/A dup=0 drop=587 speed=N/A    \n",
      "\n",
      "frame=109\n",
      "\n",
      "fps=1.08\n",
      "\n",
      "stream_0_1_q=26.0\n",
      "\n",
      "bitrate=N/A\n",
      "\n",
      "total_size=11010096\n",
      "\n",
      "out_time_us=N/A\n",
      "\n",
      "out_time_ms=N/A\n",
      "\n",
      "out_time=N/A\n",
      "\n",
      "dup_frames=0\n",
      "\n",
      "drop_frames=587\n",
      "\n",
      "speed=N/A\n",
      "\n",
      "progress=continue\n",
      "\n",
      "frame=  113 fps=1.1 q=26.0 size=   11008KiB time=N/A bitrate=N/A dup=0 drop=587 speed=N/A    \n",
      "\n",
      "frame=113\n",
      "\n",
      "fps=1.11\n",
      "\n",
      "stream_0_1_q=26.0\n",
      "\n",
      "bitrate=N/A\n",
      "\n",
      "total_size=11272240\n",
      "\n",
      "out_time_us=N/A\n",
      "\n",
      "out_time_ms=N/A\n",
      "\n",
      "out_time=N/A\n",
      "\n",
      "dup_frames=0\n",
      "\n",
      "drop_frames=587\n",
      "\n",
      "speed=N/A\n",
      "\n",
      "progress=continue\n",
      "\n",
      "frame=  121 fps=1.2 q=-1.0 size=   11776KiB time=N/A bitrate=N/A dup=0 drop=587 speed=N/A    \n",
      "\n",
      "frame=121\n",
      "\n",
      "fps=1.19\n",
      "\n",
      "stream_0_1_q=-1.0\n",
      "\n",
      "bitrate=N/A\n",
      "\n",
      "total_size=12058672\n",
      "\n",
      "out_time_us=N/A\n",
      "\n",
      "out_time_ms=N/A\n",
      "\n",
      "out_time=N/A\n",
      "\n",
      "dup_frames=0\n",
      "\n",
      "drop_frames=587\n",
      "\n",
      "speed=N/A\n",
      "\n",
      "progress=continue\n",
      "\n",
      "[out#0/mp4 @ 000002db64522f80] video:12163KiB audio:78KiB subtitle:0KiB other streams:0KiB global headers:0KiB muxing overhead: 0.045003%\n",
      "\n",
      "frame=  125 fps=1.2 q=-1.0 Lsize=   12246KiB time=00:00:04.92 bitrate=20390.9kbits/s dup=0 drop=587 speed=0.0482x    \n",
      "\n",
      "frame=125\n",
      "\n",
      "fps=1.23\n",
      "\n",
      "stream_0_1_q=-1.0\n",
      "\n",
      "bitrate=20390.9kbits/s\n",
      "\n",
      "total_size=12540375\n",
      "\n",
      "out_time_us=4920000\n",
      "\n",
      "out_time_ms=4920000\n",
      "\n",
      "out_time=00:00:04.920000\n",
      "\n",
      "dup_frames=0\n",
      "\n",
      "drop_frames=587\n",
      "\n",
      "speed=0.0482x\n",
      "\n",
      "progress=end\n",
      "\n",
      "[aac @ 000002db64ebad00] Qavg: 199.465\n",
      "\n",
      "[libx264 @ 000002db655e4880] frame I:1     Avg QP:19.42  size:629484\n",
      "\n",
      "[libx264 @ 000002db655e4880] frame P:31    Avg QP:20.38  size:223249\n",
      "\n",
      "[libx264 @ 000002db655e4880] frame B:93    Avg QP:22.38  size: 52728\n",
      "\n",
      "[libx264 @ 000002db655e4880] consecutive B-frames:  0.8%  0.0%  0.0% 99.2%\n",
      "\n",
      "[libx264 @ 000002db655e4880] mb I  I16..4: 18.1% 57.4% 24.5%\n",
      "\n",
      "[libx264 @ 000002db655e4880] mb P  I16..4:  2.3%  5.6%  1.6%  P16..4: 43.7% 17.6% 11.8%  0.0%  0.0%    skip:17.3%\n",
      "\n",
      "[libx264 @ 000002db655e4880] mb B  I16..4:  2.9%  4.3%  0.1%  B16..8: 16.8%  4.9%  0.3%  direct:15.5%  skip:55.3%  L0:46.3% L1:40.2% BI:13.5%\n",
      "\n",
      "[libx264 @ 000002db655e4880] 8x8 transform intra:58.8% inter:56.4%\n",
      "\n",
      "[libx264 @ 000002db655e4880] coded y,uvDC,uvAC intra: 51.7% 62.9% 7.6% inter: 15.4% 27.9% 0.3%\n",
      "\n",
      "[libx264 @ 000002db655e4880] i16 v,h,dc,p: 26% 24% 30% 20%\n",
      "\n",
      "[libx264 @ 000002db655e4880] i8 v,h,dc,ddl,ddr,vr,hd,vl,hu: 18% 22% 36%  3%  3%  3%  5%  3%  6%\n",
      "\n",
      "[libx264 @ 000002db655e4880] i4 v,h,dc,ddl,ddr,vr,hd,vl,hu: 25% 25% 17%  5%  6%  5%  7%  4%  6%\n",
      "\n",
      "[libx264 @ 000002db655e4880] i8c dc,h,v,p: 55% 20% 21%  3%\n",
      "\n",
      "[libx264 @ 000002db655e4880] Weighted P-Frames: Y:0.0% UV:0.0%\n",
      "\n",
      "[libx264 @ 000002db655e4880] ref P L0: 58.4% 41.6%\n",
      "\n",
      "[libx264 @ 000002db655e4880] ref B L0: 81.8% 18.2%\n",
      "\n",
      "[libx264 @ 000002db655e4880] ref B L1: 96.0%  4.0%\n",
      "\n",
      "[libx264 @ 000002db655e4880] kb/s:19926.22\n",
      "\n",
      "FFMPEG has finished processing.\n"
     ]
    }
   ],
   "source": [
    "# We are going to use pipes and subprocess\n",
    "# This is because we want to see the progress of FFMPEG from our main process (i.e the notebook)\n",
    "\n",
    "import subprocess\n",
    "import datetime # For printing progress\n",
    "\n",
    "# Run the FFMPEG subprocess\n",
    "try:\n",
    "    ffmpeg_process = subprocess.Popen(command, stdout=subprocess.PIPE, stderr=subprocess.STDOUT, universal_newlines=True)\n",
    "except OSError:\n",
    "    print(\"OSError\")\n",
    "except ValueError:\n",
    "    print(\"ValueError: Cannot run FFMPEG with given parameters.\")\n",
    "\n",
    "end_time = str(datetime.timedelta(seconds=stop_duration)) # Used for printing the last point of the video\n",
    "# Print the progress that ffmpeg outputs\n",
    "print(\"FFMPEG is starting, please wait a couple minutes.\")\n",
    "for line in ffmpeg_process.stdout:\n",
    "    # for all output from ffmpeg\n",
    "    print(line)\n",
    "\n",
    "    # If you would like to print it in a simpler format\n",
    "    # This shows how much of the video you processed\n",
    "    # if line.startswith(\"out_time=\"):\n",
    "    #     progress = line.split(\"=\")[1]\n",
    "    #     print(f\"Progress: currently at {progress} / going until {end_time}\", end=\"\\r\")\n",
    "print(\"FFMPEG has finished processing.\")\n",
    "\n",
    "# IMPORTANT: you have to quit the FFMPEG process itself from Task Manager to stop it\n",
    "# It will also not continue if the file exists already, make sure to delete the file if it looks like its doing nothing.\n"
   ]
  }
 ],
 "metadata": {
  "kernelspec": {
   "display_name": "Python 3",
   "language": "python",
   "name": "python3"
  },
  "language_info": {
   "codemirror_mode": {
    "name": "ipython",
    "version": 3
   },
   "file_extension": ".py",
   "mimetype": "text/x-python",
   "name": "python",
   "nbconvert_exporter": "python",
   "pygments_lexer": "ipython3",
   "version": "3.11.2"
  }
 },
 "nbformat": 4,
 "nbformat_minor": 2
}
